<svg preserveAspectRatio="none" width="100%" height="100%" overflow="visible" style="display: block;" viewBox="0 0 27 28" fill="none" xmlns="http://www.w3.org/2000/svg">
<g id="Group">
<path id="Vector" opacity="0" d="M26.6748 0H0V27.7637H26.6748V0Z" fill="var(--fill-0, black)"/>
<path id="Vector_2" d="M24.6973 17.2559C25.7764 17.8857 26.3135 18.4717 26.3135 19.3799C26.3135 20.2832 25.7764 20.8643 24.6973 21.499L14.9316 27.1533C14.2334 27.5586 13.7109 27.7637 13.1543 27.7637C12.6074 27.7637 12.0801 27.5586 11.377 27.1533L1.61621 21.499C0.532227 20.8643 0 20.2832 0 19.3799C0 18.4717 0.532227 17.8857 1.61621 17.2559L7.23412 14.0015L10.075 15.6471L3.73535 19.2432C3.67676 19.2773 3.64258 19.3115 3.64258 19.3799C3.64258 19.4385 3.67676 19.4775 3.73535 19.5117L12.7051 24.5996C12.8809 24.6973 13.0078 24.7461 13.1543 24.7461C13.3057 24.7461 13.4277 24.6973 13.6035 24.5996L22.5732 19.5117C22.6367 19.4775 22.666 19.4385 22.666 19.3799C22.666 19.3115 22.6367 19.2773 22.5732 19.2432L16.2339 15.6473L19.0765 14.0015L24.6973 17.2559Z" fill="var(--fill-0, #343434)"/>
<path id="Vector_3" d="M13.1543 17.0166C13.7109 17.0166 14.2334 16.8066 14.9316 16.4014L24.6973 10.7471C25.7764 10.1123 26.3135 9.53125 26.3135 8.62793C26.3135 7.71973 25.7764 7.13867 24.6973 6.50391L14.9316 0.849609C14.2334 0.449219 13.7109 0.234375 13.1543 0.234375C12.6074 0.234375 12.0801 0.449219 11.377 0.849609L1.61621 6.50391C0.532227 7.13867 0 7.71973 0 8.62793C0 9.53125 0.532227 10.1123 1.61621 10.7471L11.377 16.4014C12.0801 16.8066 12.6074 17.0166 13.1543 17.0166Z" fill="var(--fill-0, #343434)"/>
</g>
</svg>
