<svg preserveAspectRatio="none" width="100%" height="100%" overflow="visible" style="display: block;" viewBox="0 0 34 34" fill="none" xmlns="http://www.w3.org/2000/svg">
<g id="Group">
<path id="Vector" opacity="0" d="M34 0H0V34H34V0Z" fill="var(--fill-0, black)"/>
<path id="Vector_2" d="M0 17C0 23.1915 3.60089 28.6336 8.33987 31.1748C10.6658 32.4484 12.4756 29.31 10.2118 28.0119C6.44925 25.9339 3.76879 21.7716 3.76879 17C3.76879 9.93697 9.5526 4.25729 16.7544 4.25729C23.9624 4.25729 29.771 9.93697 29.771 17C29.771 18.1274 30.6852 18.877 31.699 18.877C32.6754 18.877 33.5398 18.1213 33.5398 17C33.5398 7.98687 25.9587 0.564299 16.7544 0.564299C7.56248 0.564299 0 7.98687 0 17Z" fill="var(--fill-0, #1985CC)"/>
<path id="Vector_3" d="M7.07117 16.9878C7.07117 20.4248 8.96801 23.3682 11.1758 24.7211C13.1162 25.9521 14.9694 23.3561 13.2405 22.0641C11.58 20.9611 10.4917 19.1085 10.4917 16.9878C10.4917 13.5751 13.2903 10.8328 16.773 10.8328C20.2371 10.8328 22.9299 13.563 23.0544 16.8415C23.1103 17.8714 23.894 18.4869 24.777 18.4869C25.6788 18.4869 26.4748 17.8227 26.4748 16.811C26.4748 11.7713 22.0905 7.48716 16.773 7.48716C11.4494 7.48716 7.07117 11.7713 7.07117 16.9878Z" fill="var(--fill-0, #1985CC)"/>
<path id="Vector_4" d="M16.5242 29.1638C16.5119 29.9254 17.3887 30.1998 17.8986 29.6756L20.0257 27.5062L22.4635 33.4479C22.6439 33.8561 23.0357 34.1243 23.5333 33.9415L25.0756 33.3686C25.5856 33.1798 25.6104 32.6556 25.455 32.3205L22.8492 26.4336L25.9898 26.4153C26.7361 26.4214 27.103 25.6718 26.5744 25.1295L17.9484 16.4759C17.4447 15.9762 16.6922 16.2626 16.6735 16.9695L16.5242 29.1638Z" fill="var(--fill-0, #1985CC)"/>
</g>
</svg>
