<svg preserveAspectRatio="none" width="100%" height="100%" overflow="visible" style="display: block;" viewBox="0 0 16 15" fill="none" xmlns="http://www.w3.org/2000/svg">
<g id="Clip path group">
<path id="Vector" d="M0.85286 5.52633L0.0295266 8.19567C-0.0484734 8.44033 0.0295266 8.71567 0.246193 8.87167L7.79486 14.3583L7.78886 14.3503L7.76886 14.3243L0.85286 5.52633ZM15.3282 8.87167C15.4311 8.79635 15.5075 8.69036 15.5465 8.5689C15.5854 8.44745 15.5848 8.31678 15.5449 8.19567L14.7235 5.52633L7.79553 14.3463L15.3282 8.87167Z" fill="var(--fill-0, black)"/>
<path id="Vector_2" opacity="0.4" d="M0.852783 5.52633L7.76878 14.3243L7.78878 14.3503L7.79545 14.3463L14.7235 5.52633H0.852783Z" fill="var(--fill-0, black)"/>
<path id="Vector_3" opacity="0.6" d="M10.6548 5.52633L7.78878 14.3503L7.78612 14.3577L7.79545 14.3463L14.7235 5.52633H10.6548ZM4.91745 5.52633H0.852783L7.76878 14.3243L4.91745 5.52633Z" fill="var(--fill-0, black)"/>
<path id="Vector_4" opacity="0.4" d="M12.3881 0.205L10.6548 5.52633H14.7235L12.9868 0.205C12.8981 -0.0683333 12.4768 -0.0683333 12.3881 0.205ZM0.852783 5.52633L2.58678 0.205C2.67545 -0.0683333 3.09612 -0.0683333 3.18478 0.205L4.91812 5.52633H0.852783Z" fill="var(--fill-0, black)"/>
</g>
</svg>
