<svg preserveAspectRatio="none" width="100%" height="100%" overflow="visible" style="display: block;" viewBox="0 0 63 40" fill="none" xmlns="http://www.w3.org/2000/svg">
<g id="Group 32">
<g id="Rectangle 108">
<rect x="23.0468" y="-2.26933e-06" width="39.0139" height="39.0139" rx="19.507" fill="var(--fill-0, white)" fill-opacity="0.25"/>
<rect x="23.5597" y="0.512946" width="37.988" height="37.988" rx="18.994" stroke="var(--stroke-0, #828282)" stroke-opacity="0.15" stroke-width="1.0259"/>
</g>
<g id="48">
<path d="M32.2801 22.9501V20.8926L37.3611 13.4404H40.2386V20.8753H41.8336V22.9501H40.2386V25.5437H37.9201V22.9501H32.2801ZM37.9201 15.9129L34.5493 20.8753H37.9201V15.9129Z" fill="var(--fill-0, #343434)"/>
<path d="M49.503 19.2154C50.6869 19.492 51.7722 20.443 51.7722 22.1721C51.7722 24.2469 50.1607 25.6474 47.2996 25.6474C44.4385 25.6474 42.8271 24.2469 42.8271 22.1721C42.8271 20.4603 43.9124 19.5266 45.0963 19.2327C44.0768 18.9215 43.1231 18.0569 43.1231 16.5354C43.1231 14.668 44.7016 13.3367 47.2996 13.3367C49.8977 13.3367 51.4762 14.668 51.4762 16.5354C51.4762 17.9532 50.5389 18.9042 49.503 19.2154ZM47.2996 15.1176C46.2144 15.1176 45.5073 15.74 45.5073 16.6564C45.5073 17.5901 46.2144 18.2298 47.2996 18.2298C48.4013 18.2298 49.1084 17.5901 49.1084 16.6564C49.1084 15.74 48.4013 15.1176 47.2996 15.1176ZM47.2996 23.8838C48.5329 23.8838 49.3715 23.123 49.3715 22.0856C49.3715 21.0309 48.5329 20.2528 47.2996 20.2528C46.0828 20.2528 45.2442 21.0309 45.2442 22.0856C45.2442 23.123 46.0828 23.8838 47.2996 23.8838Z" fill="var(--fill-0, #343434)"/>
</g>
<g id="Frame">
<rect y="10.7927" width="17.4402" height="17.4402" rx="8.72012" fill="var(--fill-0, white)" fill-opacity="0.25"/>
<rect x="0.512948" y="11.3057" width="16.4144" height="16.4144" rx="8.20718" stroke="var(--stroke-0, #828282)" stroke-opacity="0.15" stroke-width="1.0259"/>
<path id="Vector" fill-rule="evenodd" clip-rule="evenodd" d="M8.81574 23.7211C8.96029 23.7211 9.09891 23.6637 9.20112 23.5615C9.30333 23.4593 9.36075 23.3206 9.36075 23.1761V16.8616L11.6999 19.2019C11.7506 19.2526 11.8108 19.2928 11.877 19.3202C11.9432 19.3476 12.0141 19.3617 12.0858 19.3617C12.1575 19.3617 12.2284 19.3476 12.2946 19.3202C12.3608 19.2928 12.421 19.2526 12.4717 19.2019C12.5223 19.1512 12.5625 19.0911 12.5899 19.0249C12.6174 18.9587 12.6315 18.8877 12.6315 18.816C12.6315 18.7444 12.6174 18.6734 12.5899 18.6072C12.5625 18.541 12.5223 18.4808 12.4717 18.4302L9.20161 15.1601C9.15098 15.1094 9.09084 15.0691 9.02463 15.0416C8.95841 15.0141 8.88743 15 8.81574 15C8.74406 15 8.67307 15.0141 8.60686 15.0416C8.54065 15.0691 8.4805 15.1094 8.42988 15.1601L5.15983 18.4302C5.10916 18.4808 5.06896 18.541 5.04154 18.6072C5.01411 18.6734 5 18.7444 5 18.816C5 18.8877 5.01411 18.9587 5.04154 19.0249C5.06896 19.0911 5.10916 19.1512 5.15983 19.2019C5.26217 19.3042 5.40097 19.3617 5.5457 19.3617C5.61736 19.3617 5.68832 19.3476 5.75453 19.3202C5.82073 19.2928 5.88089 19.2526 5.93156 19.2019L8.27074 16.8616V23.1761C8.27074 23.3206 8.32816 23.4593 8.43036 23.5615C8.53257 23.6637 8.6712 23.7211 8.81574 23.7211Z" fill="var(--fill-0, #343434)" stroke="var(--stroke-0, black)" stroke-width="0.25"/>
</g>
</g>
</svg>
