<svg preserveAspectRatio="none" width="100%" height="100%" overflow="visible" style="display: block;" viewBox="0 0 20 19" fill="none" xmlns="http://www.w3.org/2000/svg">
<g id="Group">
<path id="Vector" opacity="0" d="M19.2672 6.62564e-06H-1.22149e-05V18.9029H19.2672V6.62564e-06Z" fill="var(--fill-0, #343434)"/>
<path id="Vector_2" d="M3.3943 18.8965H15.5022C17.7239 18.8965 18.8965 17.734 18.8965 15.5364V3.36699C18.8965 1.17256 17.7239 6.62564e-06 15.5022 6.62564e-06H3.3943C1.17937 6.62564e-06 -1.22149e-05 1.17256 -1.22149e-05 3.36699V15.5364C-1.22149e-05 17.734 1.17937 18.8965 3.3943 18.8965ZM3.58 16.6655C2.7024 16.6655 2.23102 16.2236 2.23102 15.3028V3.60371C2.23102 2.68284 2.7024 2.23423 3.58 2.23423H15.3164C16.1872 2.23423 16.6655 2.68284 16.6655 3.60371V15.3028C16.6655 16.2236 16.1872 16.6655 15.3164 16.6655H3.58Z" fill="var(--fill-0, #343434)"/>
<path id="Vector_3" d="M9.45413 12.6018C11.2019 12.6018 12.6095 11.1874 12.6095 9.44652C12.6095 7.69877 11.2019 6.28801 9.45413 6.28801C7.71321 6.28801 6.2988 7.69877 6.2988 9.44652C6.2988 11.1874 7.71321 12.6018 9.45413 12.6018Z" fill="var(--fill-0, #343434)"/>
</g>
</svg>
