<svg preserveAspectRatio="none" width="100%" height="100%" overflow="visible" style="display: block;" viewBox="0 0 20 24" fill="none" xmlns="http://www.w3.org/2000/svg">
<g id="Group">
<path id="Vector" opacity="0" d="M19.807 -3.57628e-06H0V23.3645H19.807V-3.57628e-06Z" fill="var(--fill-0, black)"/>
<path id="Vector_2" d="M18.4164 15.1967C19.1763 15.6707 19.535 16.0931 19.535 16.7473C19.535 17.3961 19.1763 17.8185 18.4164 18.2979L11.0061 22.9074C10.5248 23.2134 10.1571 23.3646 9.76501 23.3646C9.38018 23.3646 9.01009 23.2134 8.52382 22.9074L1.11853 18.2979C0.353639 17.8185 -5.47605e-05 17.3961 -5.47605e-05 16.7473C-5.47605e-05 16.0931 0.353639 15.6707 1.11853 15.1967L2.50357 14.3335L4.32418 15.4681L2.43232 16.6252C2.38556 16.6542 2.35315 16.6888 2.35315 16.7473C2.35315 16.8029 2.38556 16.8349 2.43232 16.864L9.40824 21.1329C9.5458 21.2177 9.64943 21.26 9.76501 21.26C9.88556 21.26 9.98414 21.2177 10.1218 21.1329L17.0977 16.864C17.1494 16.8349 17.1768 16.8029 17.1768 16.7473C17.1768 16.6888 17.1494 16.6542 17.0977 16.6252L15.2072 15.469L17.0305 14.3335L18.4164 15.1967Z" fill="var(--fill-0, #343434)"/>
<path id="Vector_3" d="M18.4164 10.3693C19.1763 10.8487 19.535 11.271 19.535 11.9199C19.535 12.5741 19.1763 12.9964 18.4164 13.4705L11.0061 18.0855C10.5248 18.386 10.1571 18.5426 9.76501 18.5426C9.38018 18.5426 9.01009 18.386 8.52382 18.0855L1.11853 13.4705C0.353639 12.9964 -5.47605e-05 12.5741 -5.47605e-05 11.9199C-5.47605e-05 11.271 0.353639 10.8487 1.11853 10.3693L2.70759 9.37892L4.53255 10.5163L2.43232 11.8031C2.38556 11.8322 2.35315 11.8667 2.35315 11.9199C2.35315 11.9784 2.38556 12.0075 2.43232 12.042L9.40824 16.3108C9.5458 16.3902 9.64943 16.4326 9.76501 16.4326C9.88556 16.4326 9.98414 16.3902 10.1218 16.3108L17.0977 12.042C17.1494 12.0075 17.1768 11.9784 17.1768 11.9199C17.1768 11.8667 17.1494 11.8322 17.0977 11.8031L14.9987 10.5171L16.8263 9.37892L18.4164 10.3693Z" fill="var(--fill-0, #343434)"/>
<path id="Vector_4" d="M9.76501 13.4582C10.1571 13.4582 10.5248 13.3016 11.0061 13.0036L18.4164 8.38858C19.1763 7.91206 19.535 7.48977 19.535 6.8355C19.535 6.18662 19.1763 5.76684 18.4164 5.28491L11.0061 0.675325C10.5248 0.369365 10.1571 0.2207 9.76501 0.2207C9.38018 0.2207 9.01009 0.369365 8.52382 0.675325L1.11853 5.28491C0.353639 5.76684 -5.47605e-05 6.18662 -5.47605e-05 6.8355C-5.47605e-05 7.48977 0.353639 7.91206 1.11853 8.38858L8.52382 13.0036C9.01009 13.3016 9.38018 13.4582 9.76501 13.4582ZM9.76501 11.3482C9.64943 11.3482 9.54581 11.3059 9.40825 11.2265L2.43232 6.95762C2.38556 6.92566 2.35315 6.89656 2.35315 6.8355C2.35315 6.78234 2.38556 6.74786 2.43232 6.71877L9.40825 2.44701C9.54581 2.36513 9.64943 2.32275 9.76501 2.32275C9.88556 2.32275 9.98414 2.36513 10.1218 2.44701L17.0977 6.71877C17.1494 6.74786 17.1768 6.78234 17.1768 6.8355C17.1768 6.89656 17.1494 6.92566 17.0977 6.95762L10.1218 11.2265C9.98414 11.3059 9.88556 11.3482 9.76501 11.3482Z" fill="var(--fill-0, #343434)"/>
</g>
</svg>
