<svg preserveAspectRatio="none" width="100%" height="100%" overflow="visible" style="display: block;" viewBox="0 0 38 24" fill="none" xmlns="http://www.w3.org/2000/svg">
<g id="Group">
<path id="Vector" opacity="0" d="M37.8541 0H0V23.6816H37.8541V0Z" fill="var(--fill-0, black)"/>
<path id="Vector_2" d="M33.4827 2.66113C34.2738 2.66113 35.0208 2.75879 35.7484 2.94434C37.5696 3.38867 38.2532 0.854492 36.3587 0.34668C35.6068 0.141602 34.5325 0 33.4827 0C26.2171 0 20.221 6.62109 20.221 14.6045C20.221 20.0146 22.5648 23.6621 26.1097 23.6621C29.6595 23.6621 32.0081 20.0146 32.0081 14.6045C32.0081 6.62109 26.0267 0 18.7464 0C11.4661 0 5.48469 6.62109 5.48469 14.6045C5.48469 20.0146 7.83332 23.6621 11.3831 23.6621C14.9232 23.6621 17.2669 20.0146 17.2669 14.6045C17.2669 6.62109 11.2708 0 4.00031 0C2.96027 0 1.88606 0.141602 1.1341 0.34668C-0.770193 0.854492 -0.0768342 3.38867 1.73957 2.94434C2.46711 2.75879 3.21418 2.66113 4.00031 2.66113C9.79133 2.66113 14.6155 8.08105 14.6155 14.6045C14.6155 18.4277 13.2825 21.0107 11.3831 21.0107C9.48371 21.0107 8.14094 18.4131 8.14094 14.6045C8.14094 8.08105 12.9554 2.66113 18.7464 2.66113C24.5325 2.66113 29.3519 8.08105 29.3519 14.6045C29.3519 18.4131 28.0042 21.0107 26.1097 21.0107C24.2103 21.0107 22.8773 18.4277 22.8773 14.6045C22.8773 8.08105 27.7015 2.66113 33.4827 2.66113Z" fill="var(--fill-0, #343434)"/>
</g>
</svg>
