<svg preserveAspectRatio="none" width="100%" height="100%" overflow="visible" style="display: block;" viewBox="0 0 25 30" fill="none" xmlns="http://www.w3.org/2000/svg">
<g id="Group">
<path id="Vector" opacity="0" d="M24.2969 0H0V29.1309H24.2969V0Z" fill="var(--fill-0, black)"/>
<path id="Vector_2" d="M8.99414 24.624C8.99414 27.1143 6.98242 29.126 4.49707 29.126C2.02148 29.126 0.00488281 27.1143 0.00488281 24.624C0.00488281 22.1533 2.02148 20.1367 4.49707 20.1367C6.98242 20.1367 8.99414 22.1533 8.99414 24.624ZM2.61719 24.624C2.61719 25.6836 3.44727 26.5186 4.49707 26.5186C5.57129 26.5186 6.38672 25.6885 6.38672 24.624C6.38672 23.5596 5.57129 22.749 4.49707 22.749C3.44238 22.749 2.61719 23.5645 2.61719 24.624Z" fill="var(--fill-0, #343434)"/>
<path id="Vector_3" d="M14.9463 4.4873C14.9463 4.92515 15.0087 5.34829 15.1282 5.74707H7.28027C4.47266 5.74707 2.89062 6.93848 2.89062 8.9209C2.89062 10.9326 4.62402 12.2559 8.46191 12.6562L15.8789 13.4277C21.1523 13.9648 23.9355 16.4307 23.9355 20.21C23.9355 23.9209 21.0742 26.2646 16.8848 26.2646H16.2695V27.8857C16.2695 28.8135 15.4736 29.1455 14.7998 28.6182L10.8789 25.5176C10.376 25.1172 10.3711 24.5166 10.8789 24.1162L14.7949 21.0059C15.4736 20.4688 16.2695 20.8057 16.2695 21.748V23.3789H16.8848C19.458 23.3789 21.0498 22.1924 21.0498 20.21C21.0498 18.1982 19.3066 16.875 15.4688 16.4746L8.03223 15.7031C2.77832 15.1709 0 12.7002 0 8.9209C0 5.20996 2.85645 2.85645 7.28027 2.85645H15.2573C15.0551 3.36071 14.9463 3.91146 14.9463 4.4873Z" fill="var(--fill-0, #343434)"/>
<path id="Vector_4" d="M19.4336 8.98438C21.9238 8.98438 23.9355 6.97266 23.9355 4.4873C23.9355 2.01172 21.9238 0 19.4336 0C16.958 0 14.9463 2.01172 14.9463 4.4873C14.9463 6.97266 16.958 8.98438 19.4336 8.98438ZM19.4336 6.37695C18.3838 6.37695 17.5586 5.54199 17.5586 4.4873C17.5586 3.42285 18.3789 2.60742 19.4336 2.60742C20.5127 2.60742 21.3281 3.41797 21.3281 4.4873C21.3281 5.54688 20.5029 6.37695 19.4336 6.37695Z" fill="var(--fill-0, #343434)"/>
</g>
</svg>
