<svg preserveAspectRatio="none" width="100%" height="100%" overflow="visible" style="display: block;" viewBox="0 0 26 19" fill="none" xmlns="http://www.w3.org/2000/svg">
<g id="Group">
<path id="Vector" opacity="0" d="M25.6476 -5.56673e-06H0.000173511V18.4661H25.6476V-5.56673e-06Z" fill="var(--fill-0, black)"/>
<path id="Vector_2" d="M7.6567 17.9175H23.9435C24.6406 17.9175 25.2035 17.3437 25.2035 16.6501C25.2035 15.9493 24.6445 15.3908 23.9435 15.3908H7.6567C6.94749 15.3908 6.4048 15.9607 6.4048 16.6501C6.4048 17.3324 6.95513 17.9175 7.6567 17.9175Z" fill="var(--fill-0, #343434)"/>
<path id="Vector_3" d="M1.82306 18.4626C2.83204 18.4626 3.64992 17.6494 3.64992 16.6502C3.64992 15.6552 2.83204 14.8422 1.82306 14.8422C0.817898 14.8422 1.87741e-05 15.6552 1.87741e-05 16.6502C1.87741e-05 17.6494 0.817898 18.4626 1.82306 18.4626Z" fill="var(--fill-0, #343434)"/>
<path id="Vector_4" d="M7.6567 10.4947H23.9435C24.6406 10.4947 25.2035 9.92101 25.2035 9.23547C25.2035 8.53474 24.6445 7.96809 23.9435 7.96809H7.6567C6.94749 7.96809 6.4048 8.54614 6.4048 9.23547C6.4048 9.91341 6.95513 10.4947 7.6567 10.4947Z" fill="var(--fill-0, #343434)"/>
<path id="Vector_5" d="M1.82306 11.0483C2.83204 11.0483 3.64992 10.239 3.64992 9.23587C3.64992 8.23278 2.83204 7.42346 1.82306 7.42346C0.817898 7.42346 1.87741e-05 8.23278 1.87741e-05 9.23587C1.87741e-05 10.239 0.817898 11.0483 1.82306 11.0483Z" fill="var(--fill-0, #343434)"/>
<path id="Vector_6" d="M7.6567 3.08004H23.9435C24.6406 3.08004 25.2035 2.50633 25.2035 1.81266C25.2035 1.11572 24.6445 0.553412 23.9435 0.553412H7.6567C6.94749 0.553412 6.4048 1.12332 6.4048 1.81266C6.4048 2.49874 6.95513 3.08004 7.6567 3.08004Z" fill="var(--fill-0, #343434)"/>
<path id="Vector_7" d="M1.82322 3.6286C2.8322 3.6286 3.65007 2.8155 3.65007 1.8124C3.65007 0.81745 2.8322 -5.56673e-06 1.82322 -5.56673e-06C0.818053 -5.56673e-06 0.000173511 0.81745 0.000173511 1.8124C0.000173511 2.8155 0.818053 3.6286 1.82322 3.6286Z" fill="var(--fill-0, #343434)"/>
</g>
</svg>
