<svg preserveAspectRatio="none" width="100%" height="100%" overflow="visible" style="display: block;" viewBox="0 0 23 15" fill="none" xmlns="http://www.w3.org/2000/svg">
<g id="Group">
<path id="Vector" opacity="0" d="M22.9932 0H0V14.0137H22.9932V0Z" fill="var(--fill-0, black)"/>
<path id="Vector_2" d="M0.50293 10.3027C0.175781 10.6396 0 11.0498 0 11.5283C0 12.5146 0.786133 13.3105 1.7627 13.3105C2.25098 13.3105 2.70996 13.1152 3.05664 12.7441L11.8506 3.65234H10.8105L19.5752 12.7441C19.9268 13.1201 20.3906 13.3105 20.8691 13.3105C21.8408 13.3105 22.6318 12.5146 22.6318 11.5283C22.6318 11.04 22.4658 10.6348 22.124 10.3027L12.7637 0.65918C12.3291 0.219727 11.875 0.00976562 11.3184 0C10.7715 0 10.3125 0.209961 9.87305 0.65918L0.50293 10.3027Z" fill="var(--fill-0, #C4C4C4)"/>
</g>
</svg>
