<svg preserveAspectRatio="none" width="100%" height="100%" overflow="visible" style="display: block;" viewBox="0 0 33 20" fill="none" xmlns="http://www.w3.org/2000/svg">
<g id="Group">
<path id="Vector" opacity="0" d="M32.2705 0H0V19.2578H32.2705V0Z" fill="var(--fill-0, black)"/>
<path id="Vector_2" d="M24.1504 19.2432C26.3428 19.2432 28.0322 18.2129 28.7891 16.377H28.9209V17.7832C28.9209 18.7402 29.5654 19.2578 30.4053 19.2578C31.2988 19.2578 31.9092 18.7061 31.9092 17.7002V5.94727C31.9092 4.93652 31.2988 4.37988 30.4053 4.37988C29.541 4.37988 28.9209 4.93652 28.9209 5.94238V7.33887H28.7891C28.0322 5.53223 26.2891 4.43359 24.1504 4.43359C20.5566 4.43359 18.2227 7.34863 18.2227 11.8164C18.2227 16.3428 20.5566 19.2432 24.1504 19.2432ZM25.1025 16.7188C22.8223 16.7188 21.3916 14.8438 21.3916 11.8359C21.3916 8.84277 22.832 6.94824 25.1025 6.94824C27.3633 6.94824 28.8525 8.8916 28.8525 11.8604C28.8525 14.8438 27.3877 16.7188 25.1025 16.7188Z" fill="var(--fill-0, #343434)"/>
<path id="Vector_3" d="M1.74316 19.2432C2.76367 19.2432 3.31543 18.8037 3.61328 17.7295L4.81445 14.2969H11.8164L13.0176 17.7295C13.3154 18.8037 13.8672 19.2432 14.8877 19.2432C15.9912 19.2432 16.7041 18.584 16.7041 17.5586C16.7041 17.168 16.6406 16.8408 16.499 16.4258L11.2402 2.0166C10.7617 0.65918 9.84375 0.00488281 8.33984 0.00488281C6.90918 0.00488281 5.99609 0.65918 5.52734 2.00684L0.195312 16.5479C0.0683594 16.9336 0 17.2803 0 17.6025C0 18.623 0.664062 19.2432 1.74316 19.2432ZM5.62988 11.5527L8.30566 3.56445H8.38867L11.0596 11.5527H5.62988Z" fill="var(--fill-0, #343434)"/>
</g>
</svg>
