<svg preserveAspectRatio="none" width="100%" height="100%" overflow="visible" style="display: block;" viewBox="0 0 20 19" fill="none" xmlns="http://www.w3.org/2000/svg">
<path id="Vector" d="M5.93531 5.70094H9.72851V2.18032H5.93531V5.70094ZM2.17497 9.23491H5.93531V5.70094H2.17497V9.23491ZM9.72851 9.23491H13.4755V5.70094H9.72851V9.23491ZM5.93531 12.7556H9.72851V9.23491H5.93531V12.7556ZM2.17497 15.9116L2.56924 16.2859H5.93531V12.7556H2.17497V15.9116ZM9.72851 16.2859H13.4755V12.7556H9.72851V16.2859ZM3.30903 18.4661L16.1829 18.466C18.3489 18.466 19.492 17.3269 19.492 15.1825V3.29028C19.492 1.14272 18.3489 0 16.1829 0L3.30903 0.000110906C1.14975 0.000110906 0 1.14283 0 3.29039V15.1826C0 17.327 1.14975 18.4661 3.30903 18.4661ZM3.49006 16.2859C2.63451 16.2859 2.17497 15.8511 2.17497 14.9512V3.5186C2.17497 2.61871 2.63451 2.18032 3.49006 2.18032L16.0019 2.1802C16.8508 2.1802 17.317 2.6186 17.317 3.51849V9.23478V14.9511C17.317 15.8509 16.8508 16.2858 16.0019 16.2858L3.49006 16.2859Z" fill="var(--fill-0, #343434)"/>
</svg>
