<svg preserveAspectRatio="none" width="100%" height="100%" overflow="visible" style="display: block;" viewBox="0 0 20 5" fill="none" xmlns="http://www.w3.org/2000/svg">
<g id="Group">
<path id="Vector" opacity="0" d="M19.6577 8.71293e-05H-8.77718e-05V4.25679H19.6577V8.71293e-05Z" fill="var(--fill-0, #343434)"/>
<path id="Vector_2" d="M17.1634 4.23994C18.3364 4.23994 19.2868 3.29325 19.2868 2.12343C19.2868 0.950423 18.3364 8.71293e-05 17.1634 8.71293e-05C15.9936 8.71293e-05 15.0401 0.950423 15.0401 2.12343C15.0401 3.29325 15.9936 4.23994 17.1634 4.23994Z" fill="var(--fill-0, #343434)"/>
<path id="Vector_3" d="M9.64335 4.23994C10.8163 4.23994 11.7598 3.29325 11.7598 2.12343C11.7598 0.950423 10.8163 8.71293e-05 9.64335 8.71293e-05C8.47034 8.71293e-05 7.52001 0.950423 7.52001 2.12343C7.52001 3.29325 8.47034 4.23994 9.64335 4.23994Z" fill="var(--fill-0, #343434)"/>
<path id="Vector_4" d="M2.12325 4.23994C3.29307 4.23994 4.23976 3.29325 4.23976 2.12343C4.23976 0.950423 3.29307 8.71293e-05 2.12325 8.71293e-05C0.950248 8.71293e-05 -8.77718e-05 0.950423 -8.77718e-05 2.12343C-8.77718e-05 3.29325 0.950248 4.23994 2.12325 4.23994Z" fill="var(--fill-0, #343434)"/>
</g>
</svg>
