<svg preserveAspectRatio="none" width="100%" height="100%" overflow="visible" style="display: block;" viewBox="0 0 20 20" fill="none" xmlns="http://www.w3.org/2000/svg">
<path id="minus " d="M0 8.23828C0 12.7834 3.64243 16.4765 8.13365 16.4765C9.69029 16.4765 11.1328 16.0139 12.3508 15.2313L16.5489 19.4834C16.8839 19.8304 17.3444 19.9961 17.8163 19.9961C18.8288 19.9961 19.5709 19.2098 19.5709 18.2035C19.5709 17.7294 19.4073 17.286 19.0686 16.9391L14.9085 12.7101C15.7648 11.4418 16.271 9.89981 16.271 8.23828C16.271 3.68929 12.6248 0 8.13365 0C3.64243 0 0 3.68929 0 8.23828ZM2.38262 8.23828C2.38262 5.02699 4.96315 2.41326 8.13365 2.41326C11.3079 2.41326 13.8808 5.02699 13.8808 8.23828C13.8808 11.4457 11.3079 14.0594 8.13365 14.0594C4.96315 14.0594 2.38262 11.4457 2.38262 8.23828ZM5.57593 9.04011H10.6913C11.1214 9.04011 11.4792 8.66998 11.4792 8.23828C11.4792 7.79878 11.1214 7.4364 10.6913 7.4364H5.57593C5.15346 7.4364 4.78046 7.80263 4.78427 8.23828C4.78807 8.66998 5.15346 9.04011 5.57593 9.04011Z" fill="var(--fill-0, #343434)"/>
</svg>
