<svg preserveAspectRatio="none" width="100%" height="100%" overflow="visible" style="display: block;" viewBox="0 0 16 14" fill="none" xmlns="http://www.w3.org/2000/svg">
<g id="Clip path group">
<path id="Vector" d="M14.6943 4.6425H10.074L9.29865 9.16927H6.09865L2.32019 13.6542C2.43995 13.7578 2.59264 13.8153 2.75096 13.8167H12.7793C12.8973 13.8182 13.0119 13.7773 13.1023 13.7014C13.1926 13.6254 13.2527 13.5196 13.2716 13.4031L14.6943 4.6425Z" fill="url(#paint0_linear_2047_13606)"/>
<path id="Vector_2" d="M0.498657 4.09465e-05C0.42681 -0.000885702 0.355631 0.0139259 0.290118 0.0434358C0.224604 0.0729456 0.166345 0.116438 0.119429 0.17086C0.0725134 0.225283 0.0380792 0.289315 0.0185442 0.358461C-0.00099093 0.427607 -0.00515338 0.500192 0.00634906 0.571118L2.0962 13.2579C2.12188 13.4122 2.2012 13.5526 2.3202 13.6542C2.43996 13.7578 2.59265 13.8153 2.75096 13.8167L6.63035 9.16927H6.08635L5.2322 4.6425H14.6943L15.359 0.573579C15.3705 0.502653 15.3663 0.430069 15.3468 0.360923C15.3272 0.291776 15.2928 0.227744 15.2459 0.173322C15.199 0.1189 15.1407 0.0754072 15.0752 0.0458973C15.0097 0.0163874 14.9385 0.00157583 14.8667 0.00250248L0.498657 4.09465e-05Z" fill="var(--fill-0, black)"/>
</g>
<defs>
<linearGradient id="paint0_linear_2047_13606" x1="1301.02" y1="205.75" x2="774.653" y2="854.056" gradientUnits="userSpaceOnUse">
<stop offset="0.07" stop-opacity="0.4"/>
<stop offset="1"/>
</linearGradient>
</defs>
</svg>
