<svg preserveAspectRatio="none" width="100%" height="100%" overflow="visible" style="display: block;" viewBox="0 0 21 25" fill="none" xmlns="http://www.w3.org/2000/svg">
<g id="connect backwards">
<path id="Vector" opacity="0" d="M21 0L2.14307e-07 0L2.14307e-07 25H21V0Z" fill="var(--fill-0, black)"/>
<path id="Vector_2" d="M7.7734 21.1322C7.7734 23.2693 6.03465 24.9958 3.88654 24.9958C1.74687 24.9958 0.00390495 23.2693 0.00390495 21.1322C0.00390495 19.0118 1.74687 17.2812 3.88654 17.2812C6.03465 17.2812 7.7734 19.0118 7.7734 21.1322ZM2.26174 21.1322C2.26174 22.0415 2.97919 22.7581 3.88654 22.7581C4.815 22.7581 5.51978 22.0457 5.51978 21.1322C5.51978 20.2187 4.815 19.523 3.88654 19.523C2.97496 19.523 2.26174 20.2229 2.26174 21.1322Z" fill="var(--fill-0, #343434)"/>
<path id="Vector_3" d="M12.9182 3.85097C12.9182 4.22673 12.9721 4.58987 13.0754 4.9321H6.2924C3.86576 4.9321 2.49839 5.95456 2.49839 7.65586C2.49839 9.38229 3.99658 10.5179 7.3137 10.8615L13.7243 11.5236C18.2821 11.9845 20.6877 14.1007 20.6877 17.3441C20.6877 20.5288 18.2146 22.5401 14.5937 22.5401H14.0619V23.9314C14.0619 24.7276 13.374 25.0125 12.7916 24.56L9.40272 21.8991C8.96806 21.5554 8.96383 21.04 9.40272 20.6964L12.7874 18.0271C13.374 17.5662 14.0619 17.8553 14.0619 18.664V20.0636H14.5937C16.8177 20.0636 18.1935 19.0454 18.1935 17.3441C18.1935 15.6176 16.6869 14.482 13.3698 14.1384L6.94232 13.4763C2.40133 13.0196 -1.75987e-09 10.8992 -1.75987e-09 7.65586C-1.75987e-09 4.47116 2.46885 2.45139 6.2924 2.45139H13.187C13.0122 2.88414 12.9182 3.35679 12.9182 3.85097Z" fill="var(--fill-0, #343434)"/>
<path id="Vector_4" d="M16.7966 7.71035C18.9489 7.71035 20.6877 5.9839 20.6877 3.85098C20.6877 1.72645 18.9489 1.12935e-06 16.7966 1.12935e-06C14.6569 1.12935e-06 12.9182 1.72645 12.9182 3.85098C12.9182 5.9839 14.6569 7.71035 16.7966 7.71035ZM16.7966 5.47266C15.8893 5.47266 15.176 4.75611 15.176 3.85098C15.176 2.93747 15.885 2.23767 16.7966 2.23767C17.7293 2.23767 18.4341 2.93328 18.4341 3.85098C18.4341 4.7603 17.7208 5.47266 16.7966 5.47266Z" fill="var(--fill-0, #343434)"/>
</g>
</svg>
