<svg preserveAspectRatio="none" width="100%" height="100%" overflow="visible" style="display: block;" viewBox="0 0 82 24" fill="none" xmlns="http://www.w3.org/2000/svg">
<g id="Group 29">
<path id="Vector" d="M73.8532 18.4661C78.2581 18.4661 81.0422 15.7966 81.0422 11.8348V1.58446C81.0422 0.599876 80.4314 0 79.4908 0C78.5458 0 77.951 0.599876 77.951 1.58446V11.5269C77.951 14.037 76.4485 15.6585 73.8532 15.6585C71.2739 15.6585 69.7672 14.037 69.7672 11.5269V1.58446C69.7672 0.599876 69.1564 0 68.2194 0C67.2825 0 66.6797 0.599876 66.6797 1.58446V11.8348C66.6797 15.7966 69.468 18.4661 73.8532 18.4661Z" fill="var(--fill-0, #343434)"/>
<path id="Vector_2" d="M36.2515 18.4661H44.115C44.9175 18.4661 45.4677 17.9783 45.4677 17.154C45.4677 16.3551 44.9336 15.8672 44.1234 15.8672H41.7891L44.5409 2.60295H46.8631C47.6694 2.60295 48.2195 2.11513 48.2195 1.29486C48.2195 0.491831 47.6854 0 46.8713 0H38.9911C38.1771 0 37.643 0.491831 37.643 1.29486C37.643 2.11513 38.197 2.60295 38.9995 2.60295H41.3171L38.5653 15.8672H36.2393C35.429 15.8672 34.8828 16.3551 34.8828 17.154C34.8828 17.9783 35.4451 18.4661 36.2515 18.4661Z" fill="var(--fill-0, #343434)"/>
<path id="Vector_3" d="M2.47229 18.4661H9.57254C13.7543 18.4661 16.4144 16.3679 16.4144 13.1651C16.4144 10.6728 14.4069 8.83184 11.6689 8.71273V8.61137C13.9366 8.32031 15.5259 6.70998 15.5259 4.6371C15.5259 1.75819 13.1875 2.86102e-06 9.34439 2.86102e-06H2.47229C0.933142 2.86102e-06 1.52588e-05 0.861806 1.52588e-05 2.3668V16.1079C1.52588e-05 17.6084 0.933142 18.4661 2.47229 18.4661ZM5.09593 15.2645V10.4047H7.80835C9.99715 10.4047 11.2394 11.2493 11.2394 12.797C11.2394 14.4027 10.1389 15.2645 7.96042 15.2645H5.09593ZM5.09593 7.58682V3.2401H7.70817C9.4744 3.2401 10.5302 4.026 10.5302 5.36598C10.5302 6.74969 9.376 7.58682 7.43953 7.58682H5.09593Z" fill="var(--fill-0, #343434)"/>
<path id="noisy-gradients" d="M66.6797 20.5184L66.6797 23.5961L81.0422 23.5961L81.0422 20.5184L66.6797 20.5184Z" fill="var(--fill-0, #343434)"/>
</g>
</svg>
