<svg preserveAspectRatio="none" width="100%" height="100%" overflow="visible" style="display: block;" viewBox="0 0 24 19" fill="none" xmlns="http://www.w3.org/2000/svg">
<g id="Group">
<path id="Vector" opacity="0" d="M23.5957 0.000105162H0.000101091V18.4662H23.5957V0.000105162Z" fill="var(--fill-0, black)"/>
<path id="Vector_2" d="M2.61897 15.6805H0.909938C0.398545 15.6805 -1.67403e-05 15.2725 -1.67403e-05 14.7949C-1.67403e-05 14.3146 0.398545 13.9096 0.909938 13.9096H2.61897V15.6805ZM23.2628 14.7949C23.2628 15.2725 22.8581 15.6805 22.3558 15.6805H20.641V13.9096H22.3558C22.8581 13.9096 23.2628 14.3146 23.2628 14.7949ZM5.7145 4.54588H0.909938C0.398545 4.54588 -1.67403e-05 4.14095 -1.67403e-05 3.66608C-1.67403e-05 3.18578 0.398545 2.77503 0.909938 2.77503H5.7145V4.54588ZM23.0183 3.66608C23.0183 4.14095 22.6136 4.54588 22.1112 4.54588H17.5484V2.77503H22.1112C22.6136 2.77503 23.0183 3.18578 23.0183 3.66608Z" fill="var(--fill-0, #343434)"/>
<path id="Vector_3" d="M7.99187 7.32567H15.2713C16.7116 7.32567 17.5485 6.53868 17.5485 5.19239V2.13056C17.5485 0.78699 16.7116 2.70364e-06 15.2713 2.70364e-06H7.99187C6.55153 2.70364e-06 5.71466 0.78699 5.71466 2.13056V5.19239C5.71466 6.53868 6.55153 7.32567 7.99187 7.32567ZM8.23624 5.52876C7.83429 5.52876 7.60491 5.30799 7.60491 4.91734V2.41417C7.60491 2.01497 7.83429 1.7969 8.23624 1.7969H15.024C15.4289 1.7969 15.6583 2.01497 15.6583 2.41417V4.91734C15.6583 5.30799 15.4289 5.52876 15.024 5.52876H8.23624ZM4.89635 18.4576H18.364C19.8043 18.4576 20.6411 17.6647 20.6411 16.3243V13.2625C20.6411 11.9189 19.8043 11.1261 18.364 11.1261H4.89635C3.456 11.1261 2.61913 11.9189 2.61913 13.2625V16.3243C2.61913 17.6647 3.456 18.4576 4.89635 18.4576ZM5.14358 16.6607C4.74164 16.6607 4.50939 16.4341 4.50939 16.0434V13.5402C4.50939 13.1468 4.74164 12.923 5.14358 12.923H18.1139C18.5187 12.923 18.7509 13.1468 18.7509 13.5402V16.0434C18.7509 16.4341 18.5187 16.6607 18.1139 16.6607H5.14358Z" fill="var(--fill-0, #343434)"/>
</g>
</svg>
