<svg preserveAspectRatio="none" width="100%" height="100%" overflow="visible" style="display: block;" viewBox="0 0 10 9" fill="none" xmlns="http://www.w3.org/2000/svg">
<g id="Clip path group">
<path id="Vector" d="M0.533037 3.45396L0.0184541 5.1223C-0.0302958 5.27521 0.0184541 5.4473 0.153871 5.5448L4.87179 8.97396L4.86804 8.96896L4.85554 8.95271L0.533037 3.45396ZM9.58012 5.5448C9.64445 5.49773 9.69221 5.43148 9.71654 5.35557C9.74087 5.27966 9.74052 5.19799 9.71554 5.1223L9.2022 3.45396L4.8722 8.96646L9.58012 5.5448Z" fill="var(--fill-0, white)"/>
<path id="Vector_2" opacity="0.4" d="M0.53299 3.45396L4.85549 8.95271L4.86799 8.96896L4.87216 8.96646L9.20216 3.45396H0.53299Z" fill="var(--fill-0, white)"/>
<path id="Vector_3" opacity="0.6" d="M6.65924 3.45396L4.86799 8.96896L4.86632 8.97355L4.87216 8.96646L9.20216 3.45396H6.65924ZM3.07341 3.45396H0.53299L4.85549 8.95271L3.07341 3.45396Z" fill="var(--fill-0, white)"/>
<path id="Vector_4" opacity="0.4" d="M7.74257 0.128129L6.65924 3.45396H9.20216L8.11674 0.128129C8.06132 -0.0427045 7.79799 -0.0427045 7.74257 0.128129ZM0.53299 3.45396L1.61674 0.128129C1.67216 -0.0427045 1.93507 -0.0427045 1.99049 0.128129L3.07382 3.45396H0.53299Z" fill="var(--fill-0, white)"/>
</g>
</svg>
