<svg preserveAspectRatio="none" width="100%" height="100%" overflow="visible" style="display: block;" viewBox="0 0 18 18" fill="none" xmlns="http://www.w3.org/2000/svg">
<g id="Frame">
<rect width="17.4402" height="17.4402" rx="8.72012" fill="var(--fill-0, white)" fill-opacity="0.25"/>
<rect x="0.512948" y="0.512948" width="16.4144" height="16.4144" rx="8.20718" stroke="var(--stroke-0, #828282)" stroke-opacity="0.15" stroke-width="1.0259"/>
<path id="Vector" fill-rule="evenodd" clip-rule="evenodd" d="M8.81574 4C8.96029 4 9.09891 4.05742 9.20112 4.15963C9.30333 4.26184 9.36075 4.40046 9.36075 4.54501V10.8595L11.6999 8.5192C11.7506 8.46853 11.8108 8.42834 11.877 8.40091C11.9432 8.37349 12.0141 8.35937 12.0858 8.35937C12.1575 8.35937 12.2284 8.37349 12.2946 8.40091C12.3608 8.42834 12.421 8.46853 12.4717 8.5192C12.5223 8.56988 12.5625 8.63003 12.5899 8.69624C12.6174 8.76245 12.6315 8.83341 12.6315 8.90507C12.6315 8.97673 12.6174 9.04769 12.5899 9.1139C12.5625 9.18011 12.5223 9.24026 12.4717 9.29094L9.20161 12.561C9.15098 12.6117 9.09084 12.652 9.02463 12.6795C8.95841 12.707 8.88743 12.7211 8.81574 12.7211C8.74406 12.7211 8.67307 12.707 8.60686 12.6795C8.54065 12.652 8.4805 12.6117 8.42988 12.561L5.15983 9.29094C5.10916 9.24026 5.06896 9.18011 5.04154 9.1139C5.01411 9.04769 5 8.97673 5 8.90507C5 8.83341 5.01411 8.76245 5.04154 8.69624C5.06896 8.63003 5.10916 8.56988 5.15983 8.5192C5.26217 8.41687 5.40097 8.35937 5.5457 8.35937C5.61736 8.35937 5.68832 8.37349 5.75453 8.40091C5.82073 8.42834 5.88089 8.46853 5.93156 8.5192L8.27074 10.8595V4.54501C8.27074 4.40046 8.32816 4.26184 8.43036 4.15963C8.53257 4.05742 8.6712 4 8.81574 4Z" fill="var(--fill-0, #343434)" stroke="var(--stroke-0, black)" stroke-width="0.25"/>
</g>
</svg>
