<svg preserveAspectRatio="none" width="100%" height="100%" overflow="visible" style="display: block;" viewBox="0 0 20 20" fill="none" xmlns="http://www.w3.org/2000/svg">
<g id="Group">
<path id="Vector" opacity="0" d="M20 0H0V20H20V0Z" fill="var(--fill-0, black)"/>
<path id="Vector_2" d="M0 8.23828C0 12.7834 3.66947 16.4765 8.19403 16.4765C9.76222 16.4765 11.2154 16.0139 12.4424 15.2313L16.6718 19.4834C17.0092 19.8304 17.4731 19.9961 17.9485 19.9961C18.9685 19.9961 19.7162 19.2098 19.7162 18.2035C19.7162 17.7294 19.5514 17.286 19.2101 16.9391L15.0192 12.7101C15.8819 11.4418 16.3918 9.89981 16.3918 8.23828C16.3918 3.68929 12.7185 0 8.19403 0C3.66947 0 0 3.68929 0 8.23828ZM2.4003 8.23828C2.4003 5.02699 4.99999 2.41326 8.19403 2.41326C11.3918 2.41326 13.9839 5.02699 13.9839 8.23828C13.9839 11.4457 11.3918 14.0594 8.19403 14.0594C4.99999 14.0594 2.4003 11.4457 2.4003 8.23828ZM5.61732 9.04011H10.7707C11.204 9.04011 11.5644 8.66998 11.5644 8.23828C11.5644 7.79878 11.204 7.4364 10.7707 7.4364H5.61732C5.19171 7.4364 4.81594 7.80263 4.81978 8.23828C4.82361 8.66998 5.19171 9.04011 5.61732 9.04011Z" fill="var(--fill-0, white)"/>
</g>
</svg>
