<svg preserveAspectRatio="none" width="100%" height="100%" overflow="visible" style="display: block;" viewBox="0 0 34 29" fill="none" xmlns="http://www.w3.org/2000/svg">
<g id="Group">
<path id="Vector" opacity="0" d="M33.4698 0H0V28.5766H33.4698V0Z" fill="var(--fill-0, black)"/>
<path id="Vector_2" d="M25.5361 3.55099L26.1477 7.02267H23.2192L22.7529 4.38107C22.5527 3.24825 21.8643 2.81368 20.7901 3.00411L4.37404 5.88986C3.28517 6.09005 2.80177 6.72482 3.00197 7.87228L4.98439 19.1272C5.18947 20.26 5.86329 20.7043 6.94728 20.5139L7.27443 20.4562V23.385L7.27462 23.3904L7.16701 23.4094C4.4131 23.8928 2.6797 22.6818 2.20119 19.9572L0.101576 8.04318C-0.37694 5.31857 0.843763 3.58028 3.58302 3.09689L20.5703 0.103722C23.3193 -0.379676 25.0625 0.836144 25.5361 3.55099Z" fill="var(--fill-0, #343434)"/>
<path id="Vector_3" d="M16.9033 17.3498C18.3438 17.3498 19.5205 16.1584 19.5205 14.7082C19.5205 13.2824 18.3438 12.0861 16.9033 12.0861C15.4531 12.0861 14.2764 13.2824 14.2764 14.7082C14.2764 16.1584 15.4531 17.3498 16.9033 17.3498ZM12.1768 26.4172H28.3145C30.4336 26.4172 31.4932 25.3527 31.4932 23.1701V22.5549L25.6631 17.1106C25.1992 16.6809 24.6426 16.466 24.0518 16.466C23.4756 16.466 22.9434 16.6662 22.4551 17.1008L17.6309 21.3488L15.7217 19.6154C15.2774 19.2151 14.7891 19.0197 14.2764 19.0197C13.7979 19.0197 13.334 19.2151 12.8945 19.6008L8.98829 23.0774C8.98829 25.3576 10.0235 26.4172 12.1768 26.4172ZM11.5664 27.6428H28.8125C31.5957 27.6428 33.1094 26.1438 33.1094 23.385V11.2805C33.1094 8.52169 31.5957 7.02267 28.8125 7.02267H11.5664C8.77345 7.02267 7.27443 8.51681 7.27443 11.2805V23.385C7.27443 26.1535 8.77345 27.6428 11.5664 27.6428ZM11.8545 24.757C10.751 24.757 10.1651 24.2053 10.1651 23.0529V11.6174C10.1651 10.4602 10.751 9.90841 11.8545 9.90841H28.5244C29.6182 9.90841 30.2139 10.4602 30.2139 11.6174V23.0529C30.2139 24.2053 29.6182 24.757 28.5244 24.757H11.8545Z" fill="var(--fill-0, #343434)"/>
</g>
</svg>
