<svg preserveAspectRatio="none" width="100%" height="100%" overflow="visible" style="display: block;" viewBox="0 0 14 14" fill="none" xmlns="http://www.w3.org/2000/svg">
<g id="Group">
<path id="Vector" opacity="0" d="M14 0H9.68575e-07V14H14V0Z" fill="var(--fill-0, black)"/>
<path id="Vector_2" d="M9.68575e-07 5.76679C9.68575e-07 8.94835 2.56863 11.5335 5.73582 11.5335C6.83355 11.5335 7.85081 11.2097 8.70971 10.6619L11.6702 13.6384C11.9064 13.8813 12.2312 13.9973 12.564 13.9973C13.278 13.9973 13.8013 13.4468 13.8013 12.7425C13.8013 12.4106 13.686 12.1002 13.4471 11.8574L10.5134 8.89706C11.1173 8.00927 11.4743 6.92987 11.4743 5.76679C11.4743 2.5825 8.90298 0 5.73582 0C2.56863 0 9.68575e-07 2.5825 9.68575e-07 5.76679ZM1.68021 5.76679C1.68021 3.5189 3.5 1.68928 5.73582 1.68928C7.97427 1.68928 9.7887 3.5189 9.7887 5.76679C9.7887 8.01198 7.97427 9.84156 5.73582 9.84156C3.5 9.84156 1.68021 8.01198 1.68021 5.76679ZM5.73582 8.54087C5.87 8.54087 5.96394 8.44101 5.99346 8.31152C6.28337 6.52775 6.46317 6.25789 8.2561 6.02312C8.40106 6.00156 8.495 5.89899 8.495 5.76138C8.495 5.62912 8.39836 5.53468 8.2561 5.51041C6.48466 5.27024 6.26726 4.995 5.99346 3.22475C5.96933 3.08983 5.86461 2.99268 5.73582 2.99268C5.60158 2.99268 5.50764 3.08983 5.48082 3.22475C5.18826 5.00309 5.01379 5.26485 3.21549 5.51041C3.0786 5.53468 2.97929 5.62912 2.97929 5.76138C2.97929 5.89899 3.07591 5.99886 3.21012 6.02312C5.00843 6.2255 5.20973 6.53588 5.48082 8.30881C5.50495 8.43835 5.60158 8.54087 5.73582 8.54087Z" fill="var(--fill-0, #343434)"/>
</g>
</svg>
