<svg preserveAspectRatio="none" width="100%" height="100%" overflow="visible" style="display: block;" viewBox="0 0 27 27" fill="none" xmlns="http://www.w3.org/2000/svg">
<g id="Group">
<path id="Vector" opacity="0" d="M26.6943 0H0V26.3477H26.6943V0Z" fill="var(--fill-0, black)"/>
<path id="Vector_2" d="M13.1641 26.333C20.4346 26.333 26.333 20.4346 26.333 13.1689C26.333 5.89844 20.4346 0 13.1641 0C5.89355 0 0 5.89844 0 13.1689C0 20.4346 5.89355 26.333 13.1641 26.333ZM13.1641 23.3789C7.51953 23.3789 2.9541 18.8135 2.9541 13.1689C2.9541 7.52441 7.51953 2.9541 13.1641 2.9541C18.8086 2.9541 23.374 7.52441 23.374 13.1689C23.374 18.8135 18.8086 23.3789 13.1641 23.3789Z" fill="var(--fill-0, #343434)"/>
<path id="Vector_3" d="M8.48633 14.458H17.832C18.6035 14.458 19.1602 13.9551 19.1602 13.1982C19.1602 12.4316 18.623 11.9189 17.832 11.9189H8.48633C7.7002 11.9189 7.1582 12.4316 7.1582 13.1982C7.1582 13.9551 7.71484 14.458 8.48633 14.458Z" fill="var(--fill-0, #343434)"/>
</g>
</svg>
