<svg preserveAspectRatio="none" width="100%" height="100%" overflow="visible" style="display: block;" viewBox="0 0 22 19" fill="none" xmlns="http://www.w3.org/2000/svg">
<g id="Group">
<path id="Vector" opacity="0" d="M21.5438 -7.19301e-06H-1.3576e-05V18.4661H21.5438V-7.19301e-06Z" fill="var(--fill-0, #343434)"/>
<path id="Vector_2" d="M1.0447 2.19078H20.112C20.6976 2.19078 21.1704 1.69334 21.1704 1.09892C21.1704 0.491331 20.7009 -7.19301e-06 20.112 -7.19301e-06H1.0447C0.459055 -7.19301e-06 -1.3576e-05 0.50121 -1.3576e-05 1.09892C-1.3576e-05 1.68675 0.462264 2.19078 1.0447 2.19078ZM4.90947 7.6137H16.2471C16.8328 7.6137 17.3057 7.10919 17.3057 6.51477C17.3057 5.91047 16.836 5.42291 16.2471 5.42291H4.90947C4.32383 5.42291 3.86476 5.91707 3.86476 6.51477C3.86476 7.10261 4.32703 7.6137 4.90947 7.6137ZM1.0447 13.0328H20.112C20.6976 13.0328 21.1704 12.5354 21.1704 11.941C21.1704 11.3263 20.7009 10.842 20.112 10.842H1.0447C0.459055 10.842 -1.3576e-05 11.3329 -1.3576e-05 11.941C-1.3576e-05 12.5255 0.462264 13.0328 1.0447 13.0328ZM4.90947 18.4487H16.2471C16.8328 18.4487 17.3057 17.9512 17.3057 17.3569C17.3057 16.7493 16.836 16.2579 16.2471 16.2579H4.90947C4.32383 16.2579 3.86476 16.7591 3.86476 17.3569C3.86476 17.9446 4.32703 18.4487 4.90947 18.4487Z" fill="var(--fill-0, #343434)"/>
</g>
</svg>
