<svg preserveAspectRatio="none" width="100%" height="100%" overflow="visible" style="display: block;" viewBox="0 0 10 9" fill="none" xmlns="http://www.w3.org/2000/svg">
<g id="Clip path group">
<path id="Vector" d="M9.18397 2.90156H6.29627L5.81166 5.73079H3.81166L1.45012 8.53387C1.52497 8.59859 1.6204 8.63458 1.71935 8.63541H7.98704C8.06079 8.63636 8.13243 8.61078 8.18891 8.56334C8.24538 8.5159 8.28294 8.44975 8.29473 8.37694L9.18397 2.90156Z" fill="url(#paint0_linear_2047_13616)"/>
<path id="Vector_2" d="M0.31166 2.55916e-05C0.266756 -0.000553564 0.222269 0.00870367 0.181324 0.0271473C0.140378 0.045591 0.103965 0.072774 0.0746431 0.106788C0.0453209 0.140802 0.0237995 0.180822 0.0115901 0.224038C-0.000619331 0.267255 -0.00322086 0.31262 0.00396816 0.356949L1.31012 8.28618C1.32618 8.38265 1.37575 8.47036 1.45012 8.53387C1.52497 8.5986 1.6204 8.63459 1.71935 8.63541L4.14397 5.73079H3.80397L3.27012 2.90156H9.18397L9.59935 0.358487C9.60654 0.314158 9.60394 0.268793 9.59173 0.225577C9.57952 0.18236 9.558 0.14234 9.52868 0.108326C9.49936 0.0743125 9.46294 0.0471295 9.422 0.0286858C9.38105 0.0102421 9.33656 0.000984896 9.29166 0.00156405L0.31166 2.55916e-05Z" fill="var(--fill-0, white)"/>
</g>
<defs>
<linearGradient id="paint0_linear_2047_13616" x1="813.14" y1="128.594" x2="484.158" y2="533.785" gradientUnits="userSpaceOnUse">
<stop offset="0.07" stop-color="white" stop-opacity="0.4"/>
<stop offset="1" stop-color="white"/>
</linearGradient>
</defs>
</svg>
