<svg preserveAspectRatio="none" width="100%" height="100%" overflow="visible" style="display: block;" viewBox="0 0 27 19" fill="none" xmlns="http://www.w3.org/2000/svg">
<g id="Group">
<path id="Vector" opacity="0" d="M26.6733 2.70364e-06H1.78551e-05V18.4661H26.6733V2.70364e-06Z" fill="var(--fill-0, black)"/>
<path id="Vector_2" d="M9.63218 2.71187H25.3188C25.876 2.71187 26.3194 2.25124 26.3194 1.70081C26.3194 1.1382 25.8791 0.683217 25.3188 0.683217H9.63218C9.06842 0.683217 8.63165 1.14734 8.63165 1.70081C8.63165 2.24515 9.07148 2.71187 9.63218 2.71187ZM9.63218 7.73346H25.3188C25.876 7.73346 26.3194 7.26628 26.3194 6.71585C26.3194 6.15628 25.8791 5.7048 25.3188 5.7048H9.63218C9.06842 5.7048 8.63165 6.16239 8.63165 6.71585C8.63165 7.26019 9.07148 7.73346 9.63218 7.73346ZM9.63218 12.7516H25.3188C25.876 12.7516 26.3194 12.2909 26.3194 11.7405C26.3194 11.1713 25.8791 10.7229 25.3188 10.7229H9.63218C9.06842 10.7229 8.63165 11.1774 8.63165 11.7405C8.63165 12.2817 9.07148 12.7516 9.63218 12.7516ZM9.63218 17.7666H18.1754C18.7326 17.7666 19.1759 17.306 19.1759 16.7555C19.1759 16.1929 18.7387 15.738 18.1754 15.738H9.63218C9.06842 15.738 8.63165 16.202 8.63165 16.7555C8.63165 17.2998 9.07148 17.7666 9.63218 17.7666Z" fill="var(--fill-0, #343434)"/>
<path id="Vector_3" d="M3.33609 18.1733L5.37531 15.482C5.79904 14.9185 5.56384 14.2085 4.83028 14.2085H3.50665V4.24811H4.83028C5.55074 4.24811 5.81213 3.55121 5.37531 2.97154L3.33609 0.273617C3.0555 -0.0959807 2.52572 -0.0863917 2.25168 0.273617L0.212445 2.97154C-0.22393 3.55425 0.0374613 4.24811 0.763588 4.24811H2.0785V14.2085H0.763588C0.0374613 14.2085 -0.22393 14.9023 0.212445 15.482L2.25168 18.1733C2.53227 18.5495 3.0555 18.5526 3.33609 18.1733Z" fill="var(--fill-0, #343434)"/>
</g>
</svg>
