<svg preserveAspectRatio="none" width="100%" height="100%" overflow="visible" style="display: block;" viewBox="0 0 20 25" fill="none" xmlns="http://www.w3.org/2000/svg">
<g id="Group">
<path id="Vector" opacity="0" d="M20 0H0V25H20V0Z" fill="var(--fill-0, black)"/>
<path id="Vector_2" d="M0.00407249 3.06005H3.09102V1.34857C3.09102 0.49901 2.6349 0 1.86113 0H1.22174C0.452046 0 0.00407249 0.523754 0.00407249 1.35682V3.06005ZM0 21.9359L1.09142 24.5381C1.25433 24.9093 1.7919 24.901 1.94258 24.5546L3.08695 21.9359V4.56532H0V21.9359ZM11.4844 24.7897H16.9294C18.5991 24.7897 19.6987 23.6514 19.6987 21.9606V3.03118C19.6987 1.32795 18.5991 0.197955 16.9294 0.197955H11.4844C9.81472 0.197955 8.70702 1.32795 8.70702 3.03118V21.9606C8.70702 23.6556 9.81472 24.7897 11.4844 24.7897ZM11.7858 22.7606C11.1342 22.7606 10.7147 22.3441 10.7147 21.7008V3.28687C10.7147 2.64765 11.1342 2.22699 11.7858 2.22699H16.6199C17.2714 2.22699 17.6949 2.65177 17.6949 3.29099V21.6925C17.6949 22.34 17.2714 22.7606 16.6199 22.7606H11.7858ZM18.2448 4.23128V3.31162H13.5859C13.3374 3.31162 13.1419 3.5137 13.1419 3.77764C13.1419 4.03744 13.3292 4.23128 13.5859 4.23128H18.2448ZM18.2448 5.97163V5.05609H15.0845C14.8238 5.05609 14.6324 5.25817 14.6324 5.52623C14.6324 5.78192 14.8198 5.97163 15.0845 5.97163H18.2448ZM18.2448 7.7161V6.80056H15.0845C14.8238 6.80056 14.6324 7.00677 14.6324 7.27071C14.6324 7.52639 14.8198 7.7161 15.0845 7.7161H18.2448ZM18.2448 9.45646V8.54505H15.0845C14.8238 8.54505 14.6324 8.73475 14.6324 9.00282C14.6324 9.26676 14.8198 9.45646 15.0845 9.45646H18.2448ZM18.2448 11.1968V10.2772H15.0845C14.8238 10.2772 14.6324 10.4833 14.6324 10.7556C14.6324 11.0029 14.8198 11.1968 15.0845 11.1968H18.2448ZM18.2448 12.933V12.0258H13.5859C13.3374 12.0258 13.1419 12.2237 13.1419 12.4877C13.1419 12.7516 13.3292 12.933 13.5859 12.933H18.2448ZM18.2448 14.6899V13.7619H15.0845C14.8238 13.7619 14.6324 13.964 14.6324 14.2238C14.6324 14.4919 14.8198 14.6899 15.0845 14.6899H18.2448ZM18.2448 16.4261V15.5106H15.0845C14.8238 15.5106 14.6324 15.7044 14.6324 15.9807C14.6324 16.2364 14.8198 16.4261 15.0845 16.4261H18.2448ZM18.2448 18.1623V17.2509H15.0845C14.8238 17.2509 14.6324 17.453 14.6324 17.7128C14.6324 17.9685 14.8198 18.1623 15.0845 18.1623H18.2448ZM18.2448 19.9027V18.9872H15.0845C14.8238 18.9872 14.6324 19.181 14.6324 19.4449C14.6324 19.7212 14.8198 19.9027 15.0845 19.9027H18.2448ZM18.2448 21.643V20.7275H13.5859C13.3374 20.7275 13.1419 20.9255 13.1419 21.1977C13.1419 21.4533 13.3292 21.643 13.5859 21.643H18.2448Z" fill="var(--fill-0, #343434)"/>
</g>
</svg>
