<svg preserveAspectRatio="none" width="100%" height="100%" overflow="visible" style="display: block;" viewBox="0 0 16 20" fill="none" xmlns="http://www.w3.org/2000/svg">
<g id="Group">
<path id="Vector" opacity="0" d="M16 0H0V20H16V0Z" fill="var(--fill-0, black)"/>
<path id="Vector_2" d="M2.04534 17.004V2.98281C2.04534 2.32143 2.41849 1.95767 3.14403 1.95767H12.5968C13.3224 1.95767 13.6956 2.32143 13.6956 2.98281V17.004C13.6956 17.6654 13.3224 18.0291 12.5968 18.0291H3.14403C2.41849 18.0291 2.04534 17.6654 2.04534 17.004Z" fill="var(--fill-0, white)" fill-opacity="0.2125"/>
<path id="Vector_3" d="M5.1721 17.2586H10.5826C10.8555 17.2586 11.0559 17.08 11.0559 16.8023C11.0559 16.5278 10.8555 16.3459 10.5826 16.3459H7.87737H5.1721C4.89571 16.3459 4.69877 16.5278 4.69877 16.8023C4.69877 17.08 4.89571 17.2586 5.1721 17.2586ZM0 17.3182C0 18.9616 1.09868 19.9901 2.85036 19.9901H12.894C14.6456 19.9901 15.7444 18.9616 15.7444 17.3182V2.67196C15.7444 1.02844 14.6456 0 12.894 0H2.85036C1.09868 0 0 1.02844 0 2.67196V17.3182ZM2.04534 17.004V2.98281C2.04534 2.32143 2.41849 1.95767 3.14403 1.95767H12.5968C13.3224 1.95767 13.6956 2.32143 13.6956 2.98281V17.004C13.6956 17.6654 13.3224 18.0291 12.5968 18.0291H3.14403C2.41849 18.0291 2.04534 17.6654 2.04534 17.004Z" fill="var(--fill-0, #343434)"/>
</g>
</svg>
