<svg preserveAspectRatio="none" width="100%" height="100%" overflow="visible" style="display: block;" viewBox="0 0 27 14" fill="none" xmlns="http://www.w3.org/2000/svg">
<g id="Group">
<path id="Vector" opacity="0" d="M27 2.20502e-07H2.64603e-06V14H27V2.20502e-07Z" fill="var(--fill-0, black)"/>
<path id="Vector_2" d="M13.1186 14.0001C13.4856 14.0001 13.7459 13.7915 13.7459 13.4287C13.7459 13.2672 13.7103 13.1585 13.5916 12.9011C12.5303 11.1101 11.9251 9.18794 11.9251 7.01816C11.9251 4.94895 12.4888 2.91378 13.5964 1.11557C13.7103 0.863083 13.7459 0.759267 13.7459 0.595187C13.7459 0.244439 13.4856 0.0237022 13.1186 0.0237022C12.7127 0.0237022 12.4063 0.214619 12.058 0.702254C10.7213 2.40784 10.0514 4.58282 10.0514 7.01095C10.0514 9.4437 10.7014 11.5498 12.058 13.3144C12.3991 13.8115 12.7127 14.0001 13.1186 14.0001ZM15.3751 11.7671C15.73 11.7671 15.951 11.6509 16.2395 11.2251L18.3121 8.20505H18.3478L20.4728 11.2798C20.7266 11.6525 20.948 11.7671 21.275 11.7671C21.8075 11.7671 22.1784 11.4157 22.1784 10.9169C22.1784 10.7063 22.1123 10.5191 21.9632 10.3176L19.5543 6.99488L21.9422 3.78907C22.112 3.56245 22.1852 3.37512 22.1852 3.13113C22.1852 2.63629 21.8013 2.31404 21.3176 2.31404C20.9267 2.31404 20.7135 2.4945 20.4656 2.86749L18.4783 5.80669H18.4378L16.4387 2.858C16.1885 2.48271 15.9608 2.31404 15.537 2.31404C15.0189 2.31404 14.6288 2.6959 14.6288 3.16683C14.6288 3.45243 14.7145 3.64434 14.859 3.84379L17.19 6.98864L14.7641 10.3396C14.5849 10.5711 14.531 10.7657 14.531 10.9926C14.531 11.44 14.9051 11.7671 15.3751 11.7671ZM23.6666 14.0001C24.0675 14.0001 24.3837 13.8092 24.7271 13.3144C26.0884 11.5521 26.7338 9.4437 26.7338 7.01095C26.7338 4.58282 26.0543 2.41013 24.7271 0.702254C24.3811 0.212328 24.0675 0.0237022 23.6666 0.0237022C23.2996 0.0237022 23.0392 0.244439 23.0392 0.595187C23.0392 0.759267 23.0749 0.863083 23.1887 1.11557C24.2964 2.91378 24.8601 4.94895 24.8601 7.01816C24.8601 9.18794 24.2548 11.1101 23.1887 12.9011C23.0749 13.1585 23.0392 13.2672 23.0392 13.4287C23.0392 13.7794 23.2996 14.0001 23.6666 14.0001Z" fill="var(--fill-0, #343434)"/>
<path id="Vector_3" d="M1.44017 13.9804C3.36903 13.9804 4.25905 13.177 4.7039 11.0476L5.75365 6.04768H7.4671C8.00284 6.04768 8.37307 5.7431 8.37307 5.22073C8.37307 4.74193 8.05619 4.46192 7.59076 4.46192H6.08791L6.34145 3.2502C6.58254 2.11091 6.93192 1.66573 7.89599 1.66573C8.06179 1.66573 8.21817 1.66115 8.3307 1.64937C8.81316 1.59271 9.05943 1.34119 9.05943 0.920336C9.05943 0.31053 8.57469 0.0285565 7.57086 0.0285565C5.67114 0.0285565 4.735 0.900162 4.30716 2.96136L3.99443 4.46192H2.77621C2.23359 4.46192 1.86301 4.76617 1.86301 5.28625C1.86301 5.76505 2.18025 6.04768 2.65025 6.04768H3.65526L2.66471 10.7565C2.41642 11.9201 2.06213 12.3432 1.11509 12.3432C0.973117 12.3432 0.83115 12.3478 0.733018 12.355C0.244712 12.4189 6.18015e-05 12.6986 6.18015e-05 13.1008C6.18015e-05 13.6962 0.477588 13.9804 1.44017 13.9804Z" fill="var(--fill-0, #343434)"/>
</g>
</svg>
