<svg preserveAspectRatio="none" width="100%" height="100%" overflow="visible" style="display: block;" viewBox="0 0 12 12" fill="none" xmlns="http://www.w3.org/2000/svg">
<g id="Group">
<path id="Vector" fill-rule="evenodd" clip-rule="evenodd" d="M6 0C2.685 0 0 2.68409 0 5.99797C0 8.65208 1.7175 10.8938 4.1025 11.6885C4.4025 11.741 4.515 11.5611 4.515 11.4037C4.515 11.2612 4.5075 10.7888 4.5075 10.2865C3 10.5639 2.61 9.91912 2.49 9.58177C2.4225 9.40935 2.13 8.877 1.875 8.73458C1.665 8.62208 1.365 8.34465 1.8675 8.33715C2.34 8.32965 2.6775 8.772 2.79 8.952C3.33 9.85912 4.1925 9.60428 4.5375 9.44678C4.59 9.05693 4.7475 8.7945 4.92 8.64458C3.585 8.49465 2.19 7.9773 2.19 5.68307C2.19 5.0308 2.4225 4.49098 2.805 4.07112C2.745 3.92117 2.535 3.30638 2.865 2.48166C2.865 2.48166 3.3675 2.32421 4.515 3.09645C4.995 2.9615 5.505 2.89402 6.015 2.89402C6.525 2.89402 7.035 2.9615 7.515 3.09645C8.6625 2.31671 9.165 2.48166 9.165 2.48166C9.495 3.30638 9.285 3.92117 9.225 4.07112C9.6075 4.49098 9.84 5.0233 9.84 5.68307C9.84 7.9848 8.4375 8.49465 7.1025 8.64458C7.32 8.832 7.5075 9.19185 7.5075 9.7542C7.5075 10.5564 7.5 11.2012 7.5 11.4037C7.5 11.5611 7.6125 11.7485 7.9125 11.6885C9.10358 11.2866 10.1387 10.5213 10.8719 9.50048C11.6051 8.47965 11.9997 7.2547 12 5.99797C12 2.68409 9.315 0 6 0Z" fill="var(--fill-0, black)"/>
</g>
</svg>
