<svg preserveAspectRatio="none" width="100%" height="100%" overflow="visible" style="display: block;" viewBox="0 0 28 17" fill="none" xmlns="http://www.w3.org/2000/svg">
<g id="Group">
<path id="Vector" opacity="0" d="M28 0H0V17H28V0Z" fill="var(--fill-0, black)"/>
<path id="Vector_2" d="M0 15.6166C0 16.3774 0.580868 17 1.28723 17H26.4474C27.1538 17 27.7347 16.3774 27.7347 15.6166C27.7347 14.8558 27.1538 14.2332 26.4474 14.2332H24.5685V2.65144C24.5685 0.945295 23.6757 0.00384267 22.0837 0.00384267H5.65091C4.09834 0.00384267 3.16609 0.945295 3.16609 2.65144V14.2332H1.28723C0.580868 14.2332 0 14.8558 0 15.6166ZM5.28877 14.2332V3.20479C5.28877 2.56306 5.5792 2.27486 6.15648 2.27486H21.5782C22.1555 2.27486 22.4459 2.56306 22.4459 3.20479V14.2332H5.28877Z" fill="var(--fill-0, #1985CC)"/>
</g>
</svg>
