<svg preserveAspectRatio="none" width="100%" height="100%" overflow="visible" style="display: block;" viewBox="0 0 20 19" fill="none" xmlns="http://www.w3.org/2000/svg">
<g id="Group">
<path id="Vector" opacity="0" d="M20 0H0V19H20V0Z" fill="var(--fill-0, black)"/>
<path id="Vector_2" d="M0.44798 16.9817C2.24371 19.2405 5.86179 19.6983 7.99747 17.8732C9.78158 16.3649 10.0656 14.114 8.53591 12.2702C7.15653 10.5793 5.191 10.255 3.71786 11.5155C2.41443 12.6159 2.85009 14.0265 2.15827 14.6104C1.56316 15.0959 0.851611 14.7743 0.335517 15.2279C-0.113065 15.6349 -0.10265 16.3035 0.44798 16.9817ZM2.38304 16.588C2.25343 16.4421 2.25859 16.3014 2.34592 16.2179C2.49811 16.0789 2.93592 16.0609 3.2829 15.7079C4.16779 14.8155 3.81018 13.658 4.75754 12.8335C5.51842 12.1679 6.63744 12.3537 7.40948 13.2777C8.31976 14.3485 8.07906 15.717 6.98034 16.6609C5.69482 17.7827 3.59315 17.8145 2.38304 16.588ZM9.06449 14.6488C10.093 14.5615 10.9583 14.0708 11.94 13.0745C14.8294 10.1401 19.2824 3.53629 19.6433 3.01322C20.8386 1.29775 18.7953 -0.776517 17.1005 0.434159C16.5994 0.792577 10.1283 5.28415 7.23637 8.24485C6.2675 9.24294 5.75998 10.1196 5.66899 11.151L7.31439 11.6095C7.25806 10.8997 7.57056 10.2524 8.35412 9.45871C10.979 6.80759 16.6618 2.75573 17.5935 2.07564C17.9124 1.84003 18.2511 2.19339 18.029 2.52485C17.4584 3.47979 13.3651 9.27711 10.7834 11.9038C10.013 12.684 9.44592 12.9677 8.77767 12.9977L9.06449 14.6488ZM10.6983 12.2476L11.9113 11.9682C11.8517 10.2073 10.0805 8.37627 8.3819 8.30066L8.00139 9.53731C9.21227 9.59262 10.605 10.9823 10.6983 12.2476Z" fill="var(--fill-0, #343434)"/>
</g>
</svg>
