<svg preserveAspectRatio="none" width="100%" height="100%" overflow="visible" style="display: block;" viewBox="0 0 20 19" fill="none" xmlns="http://www.w3.org/2000/svg">
<g id="settings" clip-path="url(#clip0_2047_13620)">
<path id="Vector" opacity="0" d="M20 0H0V19H20V0Z" fill="var(--fill-0, black)"/>
<path id="Vector_2" d="M9.87414 17.8342C10.0655 17.8342 10.2535 17.8277 10.4448 17.8146L10.8947 18.6395C11.0391 18.9079 11.2943 19.0257 11.5898 18.9767C11.8919 18.9308 12.0698 18.7246 12.1135 18.43L12.2578 17.5069C12.6305 17.4022 12.9864 17.2744 13.3322 17.1239L14.0372 17.7491C14.2656 17.9553 14.5543 17.9717 14.8095 17.8342C15.0781 17.6902 15.1788 17.4349 15.115 17.1402L14.9236 16.2237C15.2325 16.0077 15.5212 15.7687 15.7999 15.5134L16.6829 15.8603C16.975 15.9749 17.2469 15.9029 17.4417 15.6803C17.6398 15.4609 17.6498 15.1893 17.4853 14.9274L16.9817 14.1319C17.1932 13.8242 17.3846 13.5067 17.5558 13.1728L18.506 13.2056C18.8149 13.2153 19.0499 13.0615 19.1506 12.7833C19.2614 12.5116 19.1808 12.2497 18.9357 12.0631L18.1803 11.487C18.2743 11.1335 18.3415 10.7701 18.3817 10.3904L19.2883 10.1023C19.5837 10.0074 19.7516 9.78804 19.7516 9.49675C19.7516 9.20539 19.5837 8.97953 19.2883 8.88789L18.3817 8.6031C18.3415 8.22332 18.2743 7.85674 18.1803 7.49988L18.9324 6.93359C19.1842 6.74702 19.248 6.47859 19.1506 6.19708C19.0499 5.91883 18.8115 5.7879 18.5026 5.79117L17.5491 5.8108C17.3846 5.48019 17.1932 5.15611 16.9817 4.85168L17.4853 4.06933C17.6565 3.81073 17.6264 3.53248 17.4383 3.30661C17.2469 3.07419 16.9716 3.02509 16.6863 3.13312L15.7965 3.4801C15.5212 3.21168 15.2291 2.97926 14.9236 2.75994L15.1217 1.85647C15.1855 1.55531 15.0713 1.30652 14.8162 1.15922C14.5509 1.00537 14.2756 1.0512 14.0474 1.2476L13.3289 1.86301C12.9864 1.70916 12.6272 1.58805 12.2578 1.4833L12.1235 0.563452C12.0799 0.262294 11.8818 0.0691603 11.5898 0.0135112C11.2943 -0.0454111 11.0492 0.092074 10.9015 0.353951L10.4415 1.17559C10.2535 1.16249 10.0655 1.15595 9.87414 1.15595C9.68271 1.15595 9.49809 1.16249 9.30673 1.17559L8.85684 0.350677C8.71244 0.0789803 8.45391 -0.0323172 8.16182 0.0135112C7.85969 0.0560661 7.67837 0.265567 7.63471 0.560179L7.49038 1.4833C7.11771 1.58805 6.76179 1.71898 6.41598 1.86629L5.71429 1.24106C5.48263 1.03483 5.19725 1.01519 4.93873 1.15267C4.6735 1.29998 4.57277 1.55531 4.63321 1.84992L4.82458 2.76976C4.5157 2.98254 4.22696 3.2215 3.95166 3.4801L3.06866 3.12657C2.77993 3.012 2.50126 3.08729 2.30989 3.30661C2.1118 3.53248 2.10173 3.80418 2.26624 4.05951L2.76985 4.85496C2.55498 5.16266 2.36696 5.48346 2.19238 5.81735L1.24559 5.78135C0.933355 5.77153 0.698335 5.92865 0.597617 6.20362C0.49018 6.47859 0.574115 6.73723 0.819207 6.9238L1.57126 7.50317C1.47389 7.86002 1.41011 8.22332 1.36982 8.6031L0.459963 8.88789C0.16787 8.97953 0 9.20539 0 9.49675C0 9.78804 0.16787 10.0074 0.459963 10.1023L1.36982 10.3904C1.41011 10.7701 1.47389 11.1335 1.57126 11.487L0.819207 12.0598C0.570757 12.2464 0.50361 12.5116 0.597617 12.7898C0.701697 13.0713 0.933355 13.199 1.24559 13.1957L2.19909 13.1793C2.36696 13.51 2.55498 13.8308 2.76985 14.1385L2.26289 14.9209C2.09502 15.1794 2.12188 15.4609 2.30989 15.6836C2.50462 15.9127 2.77657 15.9651 3.0653 15.8538L3.95501 15.5101C4.22696 15.7719 4.51906 16.0109 4.82458 16.2269L4.6265 17.1337C4.56606 17.4349 4.68021 17.6869 4.93537 17.8342C5.20061 17.9848 5.47255 17.9422 5.70422 17.7426L6.4227 17.1239C6.76516 17.2777 7.12101 17.4022 7.49038 17.5069L7.62467 18.43C7.66826 18.7246 7.86636 18.921 8.16182 18.9767C8.45728 19.0323 8.69904 18.9014 8.8501 18.6395L9.30673 17.8146C9.49809 17.8277 9.68271 17.8342 9.87414 17.8342ZM9.87414 16.0011C6.18768 16.0011 3.1996 13.0877 3.1996 9.49675C3.1996 5.89919 6.18768 2.98581 9.87414 2.98581C13.5639 2.98581 16.552 5.89919 16.552 9.49675C16.552 13.0877 13.5639 16.0011 9.87414 16.0011ZM8.08123 8.06953L9.44439 7.25438L6.71479 2.67483L5.28118 3.3819L8.08123 8.06953ZM12.0429 10.2627H17.5021V8.68817H12.0463L12.0429 10.2627ZM9.44102 11.7423L8.10475 10.8912L5.19389 15.5591L6.60736 16.2957L9.44102 11.7423ZM9.88081 11.978C11.2876 11.978 12.4257 10.8683 12.4257 9.49675C12.4257 8.12188 11.2876 7.00888 9.88081 7.00888C8.47406 7.00888 7.33258 8.12188 7.33258 9.49675C7.33258 10.8683 8.47406 11.978 9.88081 11.978ZM9.88081 10.4853C9.31677 10.4853 8.86351 10.0434 8.86351 9.49675C8.86351 8.95003 9.31677 8.50489 9.88081 8.50489C10.4415 8.50489 10.8947 8.95003 10.8947 9.49675C10.8947 10.0434 10.4415 10.4853 9.88081 10.4853Z" fill="var(--fill-0, #343434)"/>
</g>
<defs>
<clipPath id="clip0_2047_13620">
<rect width="20" height="19" fill="white"/>
</clipPath>
</defs>
</svg>
