<svg preserveAspectRatio="none" width="100%" height="100%" overflow="visible" style="display: block;" viewBox="0 0 25 24" fill="none" xmlns="http://www.w3.org/2000/svg">
<g id="Group">
<path id="Vector" opacity="0" d="M24.1846 0H0V23.8281H24.1846V0Z" fill="var(--fill-0, black)"/>
<path id="Vector_2" d="M4.29199 23.8232H19.5264C22.3145 23.8232 23.8232 22.3193 23.8232 19.5605V4.26758C23.8232 1.50391 22.3145 0 19.5264 0H4.29199C1.50879 0 0 1.49902 0 4.26758V19.5605C0 22.3291 1.50879 23.8232 4.29199 23.8232ZM4.58008 20.9326C3.47656 20.9326 2.89062 20.3857 2.89062 19.2285V4.59961C2.89062 3.44727 3.47656 2.89062 4.58008 2.89062H19.2383C20.332 2.89062 20.9326 3.44727 20.9326 4.59961V19.2285C20.9326 20.3857 20.332 20.9326 19.2383 20.9326H4.58008Z" fill="var(--fill-0, #1985CC)"/>
<path id="Vector_3" d="M6.01562 14.4287H17.7051C18.1592 14.4287 18.4961 14.0723 18.4961 13.623C18.4961 13.1885 18.1592 12.8467 17.7051 12.8467H6.01562C5.55176 12.8467 5.20996 13.1885 5.20996 13.623C5.20996 14.0723 5.55176 14.4287 6.01562 14.4287ZM6.01562 18.3691H14.7266C15.1807 18.3691 15.5176 18.0322 15.5176 17.5977C15.5176 17.1436 15.1807 16.792 14.7266 16.792H6.01562C5.55176 16.792 5.20996 17.1436 5.20996 17.5977C5.20996 18.0322 5.55176 18.3691 6.01562 18.3691ZM5.23926 6.25V9.0625C5.23926 9.89746 5.71777 10.376 6.55762 10.376H9.375C10.21 10.376 10.6885 9.89746 10.6885 9.0625V6.25C10.6885 5.40527 10.21 4.93164 9.375 4.93164H6.55762C5.71777 4.93164 5.23926 5.40527 5.23926 6.25Z" fill="var(--fill-0, #1985CC)"/>
</g>
</svg>
