<svg preserveAspectRatio="none" width="100%" height="100%" overflow="visible" style="display: block;" viewBox="0 0 58 19" fill="none" xmlns="http://www.w3.org/2000/svg">
<g id="undo-redo">
<path id="redo" d="M39.0125 12.3113C39.0125 8.30225 41.6343 5.53464 45.937 5.53464H51.6444L55.0328 5.6973L54.6407 6.34655L52.248 4.28137L50.0216 2.04025C49.8093 1.81728 49.6631 1.55231 49.6631 1.18099C49.6631 0.497771 50.1232 0 50.8247 0C51.1183 0 51.4413 0.142543 51.6727 0.381597L57.0467 5.8577C57.2824 6.09453 57.4139 6.4301 57.4139 6.76656C57.4139 7.09633 57.2824 7.43503 57.0467 7.66872L51.6727 13.1417C51.4413 13.3875 51.1183 13.5233 50.8247 13.5233C50.1232 13.5233 49.6631 13.0287 49.6631 12.3455C49.6631 11.971 49.8093 11.706 50.0216 11.4862L52.248 9.25177L54.6407 7.183L55.0328 7.83225L51.6444 7.99179H45.9425C43.0155 7.99179 41.3542 9.74641 41.3542 12.2412C41.3542 14.7394 43.0155 16.5496 45.9425 16.5496H48.1764C48.8783 16.5496 49.3812 17.0992 49.3812 17.7747C49.3812 18.4504 48.8783 19 48.1764 19H45.8271C41.5859 19 39.0125 16.3615 39.0125 12.3113Z" fill="var(--fill-0, #4D4D4D)"/>
<path id="undo " d="M19.1391 12.3113C19.1391 8.30225 16.4124 5.53464 11.9376 5.53464H6.00199L2.47799 5.6973L2.88582 6.34655L5.37416 4.28137L7.68965 2.04025C7.91047 1.81728 8.06247 1.55231 8.06247 1.18099C8.06247 0.497771 7.58394 0 6.85446 0C6.54911 0 6.21314 0.142543 5.97254 0.381597L0.383503 5.8577C0.138384 6.09453 0.00166416 6.4301 0.00166416 6.76656C0.00166416 7.09633 0.138384 7.43503 0.383503 7.66872L5.97254 13.1417C6.21314 13.3875 6.54911 13.5233 6.85446 13.5233C7.58394 13.5233 8.06247 13.0287 8.06247 12.3455C8.06247 11.971 7.91047 11.706 7.68965 11.4862L5.37416 9.25177L2.88582 7.183L2.47799 7.83225L6.00199 7.99179H11.9319C14.976 7.99179 16.7037 9.74641 16.7037 12.2412C16.7037 14.7394 14.976 16.5496 11.9319 16.5496H9.60865C8.87873 16.5496 8.3557 17.0992 8.3557 17.7747C8.3557 18.4504 8.87873 19 9.60865 19H12.0519C16.4628 19 19.1391 16.3615 19.1391 12.3113Z" fill="var(--fill-0, #4D4D4D)" fill-opacity="0.37"/>
</g>
</svg>
