<svg preserveAspectRatio="none" width="100%" height="100%" overflow="visible" style="display: block;" viewBox="0 0 9 17" fill="none" xmlns="http://www.w3.org/2000/svg">
<g id="Group">
<path id="Vector" opacity="0" d="M9 0H0V17H9V0Z" fill="var(--fill-0, black)"/>
<path id="Vector_2" d="M7.91655e-05 14.3173C0.00756655 15.0833 0.535426 15.5615 1.36278 15.5615H7.35643C8.18376 15.5615 8.7154 15.0833 8.72291 14.3173C8.73035 13.5327 8.20247 13.0433 7.35643 13.0433H5.9226V6.5833C5.9226 5.79121 5.40971 5.30923 4.63102 5.30923H1.64356C0.797484 5.30923 0.269625 5.79494 0.280856 6.5833C0.288343 7.34923 0.816207 7.82748 1.64356 7.82748H3.2833V13.0433H1.36278C0.516708 13.0433 -0.00740821 13.5327 7.91655e-05 14.3173ZM2.56451 1.68879C2.56451 2.62659 3.30576 3.37011 4.24542 3.37011C5.19257 3.37011 5.92634 2.62659 5.9226 1.68879C5.9226 0.73978 5.19257 0 4.24542 0C3.30576 0 2.56451 0.73978 2.56451 1.68879Z" fill="var(--fill-0, #343434)"/>
</g>
</svg>
