<svg preserveAspectRatio="none" width="100%" height="100%" overflow="visible" style="display: block;" viewBox="0 0 14 21" fill="none" xmlns="http://www.w3.org/2000/svg">
<g id="phone ">
<path id="Vector" opacity="0" d="M14 -0.000112683H0V20.4614H14V-0.000112683Z" fill="var(--fill-0, black)"/>
<path id="Vector_2" d="M0 17.7828C0 19.3816 1.15828 20.4334 2.91992 20.4334H10.8938C12.6033 20.4334 13.7244 19.3816 13.7244 17.7792V2.65049C13.7244 1.05171 12.6033 -0.000112683 10.8938 -0.000112683H2.91992C1.15828 -0.000112683 0 1.05171 0 2.64698V17.7828ZM2.20484 17.1867V3.24652C2.20484 2.55933 2.62943 2.18068 3.3743 2.18068H10.3538C11.0912 2.18068 11.5195 2.56985 11.5195 3.25003V17.1797C11.5195 17.8634 11.0912 18.2491 10.3538 18.2491H3.3743C2.62943 18.2491 2.20484 17.8704 2.20484 17.1867Z" fill="var(--fill-0, #343434)"/>
<path id="Vector_3" d="M4.77825 5.84478C5.48588 5.84478 6.09296 5.27329 6.09296 4.57558C6.09296 3.90942 5.48588 3.33793 4.77825 3.33793C4.0371 3.33793 3.43374 3.90942 3.43374 4.57558C3.43374 5.27329 4.0371 5.84478 4.77825 5.84478Z" fill="var(--fill-0, #343434)"/>
</g>
</svg>
