<svg preserveAspectRatio="none" width="100%" height="100%" overflow="visible" style="display: block;" viewBox="0 0 22 22" fill="none" xmlns="http://www.w3.org/2000/svg">
<g id="Group">
<path id="Vector" opacity="0" d="M22 0H0V22H22V0Z" fill="var(--fill-0, black)"/>
<path id="Vector_2" d="M14.4134 22H18.9307C20.7785 22 21.6712 21.1074 21.6712 19.1914V14.6652C21.6712 12.7492 20.7785 11.8566 18.9307 11.8566H14.4134C12.5613 11.8566 11.6773 12.7492 11.6773 14.6652V19.1914C11.6773 21.1074 12.5613 22 14.4134 22ZM14.4224 19.8406C13.9915 19.8406 13.8005 19.6422 13.8005 19.205V14.6561C13.8005 14.2189 13.9915 14.016 14.4224 14.016H18.9307C19.3482 14.016 19.5437 14.2189 19.5437 14.6561V19.205C19.5437 19.6422 19.3482 19.8406 18.9307 19.8406H14.4224Z" fill="var(--fill-0, #343434)"/>
<path id="Vector_3" d="M2.74056 22H7.25337C9.10115 22 9.99391 21.1074 9.99391 19.1914V14.6652C9.99391 12.7492 9.10115 11.8566 7.25337 11.8566H2.74056C0.888349 11.8566 0 12.7492 0 14.6652V19.1914C0 21.1074 0.888349 22 2.74056 22ZM2.74056 19.8406C2.32303 19.8406 2.1276 19.6422 2.1276 19.205V14.6561C2.1276 14.2189 2.32303 14.016 2.74056 14.016H7.24893C7.66645 14.016 7.86633 14.2189 7.86633 14.6561V19.205C7.86633 19.6422 7.66645 19.8406 7.24893 19.8406H2.74056Z" fill="var(--fill-0, #343434)"/>
<path id="Vector_4" d="M14.4134 10.148H18.9307C20.7785 10.148 21.6712 9.26437 21.6712 7.34386V2.81312C21.6712 0.897132 20.7785 0.0090164 18.9307 0.0090164H14.4134C12.5613 0.0090164 11.6773 0.897132 11.6773 2.81312V7.34386C11.6773 9.26437 12.5613 10.148 14.4134 10.148ZM14.4224 7.99304C13.9915 7.99304 13.8005 7.79468 13.8005 7.34836V2.7996C13.8005 2.37131 13.9915 2.16394 14.4224 2.16394H18.9307C19.3482 2.16394 19.5437 2.37131 19.5437 2.7996V7.34836C19.5437 7.79468 19.3482 7.99304 18.9307 7.99304H14.4224Z" fill="var(--fill-0, #343434)"/>
<path id="Vector_5" d="M2.74056 10.148H7.25337C9.10115 10.148 9.99391 9.26437 9.99391 7.34386V2.81312C9.99391 0.897132 9.10115 0.0090164 7.25337 0.0090164H2.74056C0.888349 0.0090164 0 0.897132 0 2.81312V7.34386C0 9.26437 0.888349 10.148 2.74056 10.148ZM2.74056 7.99304C2.32303 7.99304 2.1276 7.79468 2.1276 7.34836V2.7996C2.1276 2.37131 2.32303 2.16394 2.74056 2.16394H7.24893C7.66645 2.16394 7.86633 2.37131 7.86633 2.7996V7.34836C7.86633 7.79468 7.66645 7.99304 7.24893 7.99304H2.74056Z" fill="var(--fill-0, #343434)"/>
</g>
</svg>
