<svg preserveAspectRatio="none" width="100%" height="100%" overflow="visible" style="display: block;" viewBox="0 0 23 22" fill="none" xmlns="http://www.w3.org/2000/svg">
<g id="square grid ">
<path id="Vector" opacity="0" d="M23 0H0V22H23V0Z" fill="var(--fill-0, black)"/>
<path id="Vector_2" d="M6.98047 21.8683C7.67381 21.8683 8.23447 21.3711 8.23447 20.5979V1.27037C8.23447 0.492854 7.67381 0 6.98047 0C6.27001 0 5.71362 0.492854 5.71362 1.27037V20.5979C5.71362 21.3711 6.27001 21.8683 6.98047 21.8683ZM15.66 21.8683C16.3449 21.8683 16.9098 21.3711 16.9098 20.5979V1.27037C16.9098 0.492854 16.3449 0 15.66 0C14.9453 0 14.3889 0.492854 14.3889 1.27037V20.5979C14.3889 21.3711 14.9453 21.8683 15.66 21.8683ZM1.2754 16.3407H21.4036C22.1783 16.3407 22.6833 15.7799 22.6833 15.0916C22.6833 14.3905 22.1783 13.8381 21.4036 13.8381H1.2754C0.496465 13.8381 0 14.3905 0 15.0916C0 15.7799 0.496465 16.3407 1.2754 16.3407ZM1.2754 8.14909H21.4036C22.1783 8.14909 22.6833 7.59251 22.6833 6.89996C22.6833 6.19892 22.1783 5.64658 21.4036 5.64658H1.2754C0.496465 5.64658 0 6.19892 0 6.89996C0 7.59251 0.496465 8.14909 1.2754 8.14909Z" fill="var(--fill-0, #343434)"/>
</g>
</svg>
