<svg preserveAspectRatio="none" width="100%" height="100%" overflow="visible" style="display: block;" viewBox="0 0 18 17" fill="none" xmlns="http://www.w3.org/2000/svg">
<g id="Group">
<path id="Vector" opacity="0" d="M18 0H0V17H18V0Z" fill="var(--fill-0, black)"/>
<path id="Vector_2" d="M13.4762 14.174L14.645 13.1375L10.1969 8.95369L15.8303 5.87249L15.0434 4.58394L9.56139 7.57692V1.49018H8.00733V8.72367C8.00733 8.99775 8.08966 9.15215 8.26741 9.31914L13.4762 14.174ZM8.87657 16.9905C13.7791 16.9905 17.7564 13.1848 17.7564 8.49681C17.7564 3.80578 13.7791 0 8.87657 0C3.97403 0 0 3.80578 0 8.49681C0 13.1848 3.97403 16.9905 8.87657 16.9905ZM8.87657 15.0845C5.07043 15.0845 1.99195 12.1388 1.99195 8.49681C1.99195 4.85488 5.07043 1.90604 8.87657 1.90604C12.6827 1.90604 15.7611 4.85488 15.7611 8.49681C15.7611 12.1388 12.6827 15.0845 8.87657 15.0845Z" fill="var(--fill-0, #343434)"/>
</g>
</svg>
