<svg preserveAspectRatio="none" width="100%" height="100%" overflow="visible" style="display: block;" viewBox="0 0 8 8" fill="none" xmlns="http://www.w3.org/2000/svg">
<g id="Group">
<path id="Vector" fill-rule="evenodd" clip-rule="evenodd" d="M4 0C1.79 0 0 1.7894 0 3.99865C0 5.76805 1.145 7.26255 2.735 7.79235C2.935 7.82735 3.01 7.7074 3.01 7.60245C3.01 7.50745 3.005 7.19255 3.005 6.8577C2 7.0426 1.74 6.61275 1.66 6.38785C1.615 6.2729 1.42 5.918 1.25 5.82305C1.11 5.74805 0.91 5.5631 1.245 5.5581C1.56 5.5531 1.785 5.848 1.86 5.968C2.22 6.57275 2.795 6.40285 3.025 6.29785C3.06 6.03795 3.165 5.863 3.28 5.76305C2.39 5.6631 1.46 5.3182 1.46 3.78871C1.46 3.35386 1.615 2.99399 1.87 2.71408C1.83 2.61412 1.69 2.20426 1.91 1.65444C1.91 1.65444 2.245 1.54948 3.01 2.0643C3.33 1.97433 3.67 1.92935 4.01 1.92935C4.35 1.92935 4.69 1.97433 5.01 2.0643C5.775 1.54448 6.11 1.65444 6.11 1.65444C6.33 2.20426 6.19 2.61412 6.15 2.71408C6.405 2.99399 6.56 3.34886 6.56 3.78871C6.56 5.3232 5.625 5.6631 4.735 5.76305C4.88 5.888 5.005 6.1279 5.005 6.5028C5.005 7.0376 5 7.46745 5 7.60245C5 7.7074 5.075 7.83235 5.275 7.79235C6.06905 7.5244 6.7591 7.0142 7.2479 6.33365C7.73675 5.6531 7.9998 4.83647 8 3.99865C8 1.7894 6.21 0 4 0Z" fill="var(--fill-0, white)"/>
</g>
</svg>
