<svg preserveAspectRatio="none" width="100%" height="100%" overflow="visible" style="display: block;" viewBox="0 0 28 27" fill="none" xmlns="http://www.w3.org/2000/svg">
<g id="Group">
<path id="Vector" opacity="0" d="M27.5498 0H0V26.4285H27.5498V0Z" fill="var(--fill-0, black)"/>
<path id="Vector_2" d="M0.820817 16.8275C1.74855 17.6869 3.40382 17.8578 4.70265 16.6859C5.23488 16.2123 6.18703 15.2064 7.56886 13.8051C13.5552 7.75039 16.9976 4.06387 17.4566 4.47891C17.8521 4.82071 15.8208 7.73086 13.6821 10.6898C9.76125 16.1537 6.36769 20.2406 8.96047 22.8383C10.9282 24.8012 13.8335 23.268 18.8335 18.8734C21.397 16.6176 23.0083 15.1479 23.3208 15.4506C23.4868 15.602 22.7935 16.7201 22.022 18.0531C20.8159 20.143 19.1167 22.6234 20.8013 24.2982C22.0122 25.5043 24.2193 24.9525 26.6851 22.5111C27.2515 21.9398 27.3736 21.2416 26.8706 20.7533C26.4116 20.2992 25.7476 20.3725 25.2446 20.8022C23.9019 22.0766 22.6812 22.8822 22.5737 22.7602C22.437 22.6332 23.1597 21.3197 24.19 19.4838C25.7866 16.6225 26.8364 14.5912 25.2642 13.0629C23.1597 11.0268 20.7134 13.1264 16.6997 16.6713C13.7896 19.2348 11.9683 20.3529 11.8267 20.1576C11.5874 19.8598 13.1792 17.4574 16.4068 12.9506C20.4155 7.35 22.8374 3.52188 20.4546 1.21719C17.52 -1.62461 13.3452 0.28946 4.24367 9.29825C2.58351 10.9291 1.51418 11.9691 0.894059 12.7309C-0.438949 14.3227 -0.126449 15.9486 0.820817 16.8275Z" fill="var(--fill-0, #343434)"/>
</g>
</svg>
