<svg preserveAspectRatio="none" width="100%" height="100%" overflow="visible" style="display: block;" viewBox="0 0 20 19" fill="none" xmlns="http://www.w3.org/2000/svg">
<g id="Group">
<path id="Vector" opacity="0" d="M20 -2.33733e-06H2.42551e-07V19H20V-2.33733e-06Z" fill="var(--fill-0, black)"/>
<path id="Vector_2" d="M9.8604 18.988C15.3061 18.988 19.7259 14.7361 19.7259 9.49642C19.7259 4.25448 15.3061 -2.33733e-06 9.8604 -2.33733e-06C4.41477 -2.33733e-06 2.42551e-07 4.25448 2.42551e-07 9.49642C2.42551e-07 14.7361 4.41477 18.988 9.8604 18.988ZM9.8604 17.1336C5.47411 17.1336 1.92647 13.7187 1.92647 9.49642C1.92647 5.27419 5.47411 1.857 9.8604 1.857C14.2468 1.857 17.7944 5.27419 17.7944 9.49642C17.7944 13.7187 14.2468 17.1336 9.8604 17.1336Z" fill="var(--fill-0, #343434)"/>
<path id="Vector_3" d="M9.85296 6.44343C8.52542 6.44343 6.62687 6.22693 5.71951 6.09373C5.64039 6.07948 5.5515 6.06035 5.46734 6.06035C5.22762 6.06035 4.99025 6.24605 4.99025 6.57435C4.99025 6.81709 5.14109 7.02419 5.38821 7.08122C5.68247 7.16451 7.82073 7.40727 8.08536 7.45713C8.35234 7.50707 8.51056 7.72128 8.52542 8.0331C8.53013 8.5043 8.52542 9.99865 8.40422 10.6841C8.28802 11.3598 7.47227 14.6269 7.43524 14.765C7.33625 15.1124 7.5588 15.4242 7.92206 15.4242C8.18404 15.4242 8.36713 15.2861 8.4611 14.9507C8.6291 14.2892 9.21259 12.0333 9.40547 11.4859C9.52402 11.0934 9.623 10.9505 9.85296 10.9505C10.0778 10.9505 10.1792 11.0934 10.3102 11.4859C10.4805 12.0261 11.0788 14.2843 11.2421 14.9507C11.3336 15.2861 11.5192 15.4242 11.7811 15.4242C12.1494 15.4242 12.3595 15.1124 12.2656 14.765C12.236 14.6269 11.4054 11.3598 11.299 10.6841C11.1902 9.99865 11.1902 8.5043 11.1902 8.0331C11.1902 7.72128 11.3485 7.51196 11.6155 7.45713C11.8825 7.40727 14.0184 7.17651 14.315 7.08122C14.5621 7.01706 14.713 6.81709 14.713 6.57435C14.713 6.24605 14.4608 6.06035 14.2359 6.06035C14.1494 6.06035 14.0628 6.07948 13.9837 6.09373C13.074 6.22693 11.1902 6.44343 9.85296 6.44343ZM9.85296 5.85099C10.5276 5.85099 11.069 5.3156 11.069 4.67553C11.069 4.02574 10.5276 3.50461 9.85296 3.50461C9.1755 3.50461 8.63419 4.02574 8.63419 4.67553C8.63419 5.3156 9.1755 5.85099 9.85296 5.85099Z" fill="var(--fill-0, #343434)"/>
</g>
</svg>
