<svg preserveAspectRatio="none" width="100%" height="100%" overflow="visible" style="display: block;" viewBox="0 0 19 15" fill="none" xmlns="http://www.w3.org/2000/svg">
<g id="analytics symbol ">
<path id="Vector" opacity="0" d="M18.1163 0H0V14.4931H18.1163V0Z" fill="var(--fill-0, black)"/>
<path id="Vector_2" d="M14.3623 14.4344H16.2142C17.2783 14.4344 17.8667 13.7828 17.8667 12.6354V1.80417C17.8667 0.656725 17.2783 -1.14969e-05 16.2142 -1.14969e-05H14.3623C13.3075 -1.14969e-05 12.719 0.656725 12.719 1.80659V12.6354C12.719 13.7828 13.3075 14.4344 14.3623 14.4344Z" fill="var(--fill-0, #343434)"/>
<path id="Vector_3" d="M8.00509 14.4344H9.85693C10.9232 14.4344 11.507 13.7829 11.507 12.6354V4.02714C11.507 2.87969 10.9232 2.22296 9.85693 2.22296H8.00509C6.94563 2.22296 6.35716 2.87969 6.35716 4.03199V12.6354C6.35716 13.7829 6.94563 14.4344 8.00509 14.4344Z" fill="var(--fill-0, #343434)"/>
<path id="Vector_4" d="M1.6479 14.4344H3.4951C4.56134 14.4344 5.14978 13.7828 5.14978 12.6354V6.26183C5.14978 5.11438 4.56134 4.45764 3.4951 4.45764H1.6479C0.588409 4.45764 -3.82104e-05 5.11438 -3.82104e-05 6.26668V12.6354C-3.82104e-05 13.7828 0.588409 14.4344 1.6479 14.4344Z" fill="var(--fill-0, #343434)"/>
</g>
</svg>
