<svg preserveAspectRatio="none" width="100%" height="100%" overflow="visible" style="display: block;" viewBox="0 0 85 86" fill="none" xmlns="http://www.w3.org/2000/svg">
<g id="layer button">
<g id="Rectangle 113" filter="url(#filter0_d_2051_13834)">
<path d="M26 43C26 33.6803 33.5551 26 42.8748 26V26C52.1944 26 59.7495 33.6803 59.7495 43V43C59.7495 52.3197 52.1944 60 42.8748 60V60C33.5551 60 26 52.3197 26 43V43Z" fill="var(--fill-0, #E5E5E5)" fill-opacity="0.5" shape-rendering="crispEdges"/>
<path d="M42.875 26.9287C51.6726 26.9288 58.8203 34.1845 58.8203 43C58.8203 51.8155 51.6726 59.0712 42.875 59.0713C34.0773 59.0713 26.9287 51.8156 26.9287 43C26.9287 34.1844 34.0773 26.9287 42.875 26.9287Z" stroke="url(#paint0_linear_2051_13834)" stroke-opacity="0.25" stroke-width="1.8578" shape-rendering="crispEdges"/>
</g>
</g>
<defs>
<filter id="filter0_d_2051_13834" x="0.903391" y="0.903391" width="83.9427" height="84.1932" filterUnits="userSpaceOnUse" color-interpolation-filters="sRGB">
<feFlood flood-opacity="0" result="BackgroundImageFix"/>
<feColorMatrix in="SourceAlpha" type="matrix" values="0 0 0 0 0 0 0 0 0 0 0 0 0 0 0 0 0 0 127 0" result="hardAlpha"/>
<feOffset/>
<feGaussianBlur stdDeviation="12.5483"/>
<feComposite in2="hardAlpha" operator="out"/>
<feColorMatrix type="matrix" values="0 0 0 0 0 0 0 0 0 0 0 0 0 0 0 0 0 0 0.05 0"/>
<feBlend mode="normal" in2="BackgroundImageFix" result="effect1_dropShadow_2051_13834"/>
<feBlend mode="normal" in="SourceGraphic" in2="effect1_dropShadow_2051_13834" result="shape"/>
</filter>
<linearGradient id="paint0_linear_2051_13834" x1="42.8748" y1="60" x2="42.8748" y2="26" gradientUnits="userSpaceOnUse">
<stop stop-color="#E9E9E9"/>
<stop offset="1" stop-color="#C3A8A8"/>
</linearGradient>
</defs>
</svg>
