<svg preserveAspectRatio="none" width="100%" height="100%" overflow="visible" style="display: block;" viewBox="0 0 31 46" fill="none" xmlns="http://www.w3.org/2000/svg">
<g id="logo ">
<path id="Vector" d="M25.1844 31.8664L31 26.5216V26.6683V24.4557C31 18.4125 26.1875 13.5294 20.2548 13.5294H20.2174V31.726C20.2174 33.4667 22.0828 34.4471 23.3651 33.3807L25.1844 31.8677V31.8664Z" fill="var(--fill-0, #343434)"/>
<path id="Vector_2" d="M10.0953 24.6003V24.5578C10.0953 24.5347 10.0953 24.5116 10.0953 24.4873V24.2564H10.099C10.2499 18.515 14.7102 13.9473 20.1906 13.9473L20.2174 2.5652C20.2174 0.407134 18.126 -0.747237 16.5776 0.537152L1.70426 12.7771C0.623272 13.7371 0 15.1503 0 16.6412V43.8929C0.00486931 45.7217 2.06337 46.678 3.34522 45.4458L10.0953 40.1139V24.6015V24.6003Z" fill="var(--fill-0, #343434)"/>
</g>
</svg>
