<svg preserveAspectRatio="none" width="100%" height="100%" overflow="visible" style="display: block;" viewBox="0 0 38 39" fill="none" xmlns="http://www.w3.org/2000/svg">
<g id="field ">
<path id="Vector" opacity="0" d="M37.9764 0H0V38.7839H37.9764V0Z" fill="var(--fill-0, black)"/>
<path id="Vector_2" d="M23.4529 9.52377H10.6831C8.52144 9.52377 7.44545 10.6419 7.44545 12.7855V22.5023C7.44545 24.6458 8.52144 25.7689 10.6831 25.7689H12.5637C13.2762 25.7689 13.6349 26.0619 13.6349 26.8431V30.3783L17.5898 26.4964C18.1715 25.9203 18.5399 25.7689 19.3347 25.7689H26.9297C29.0817 25.7689 30.1722 24.6458 30.1722 22.5023V12.9515L32.714 10.3909C32.9287 11.0575 33.0368 11.8082 33.0368 12.6292V22.6634C33.0368 26.3792 30.8169 28.6546 27.0849 28.6546H19.5189L15.2537 32.4193C14.3182 33.2445 13.7124 33.5912 12.9369 33.5912C11.8319 33.5912 11.1581 32.8246 11.1581 31.5892V28.6546H10.3536C6.91229 28.6546 4.57127 26.389 4.57127 22.6634V12.6292C4.57127 8.90366 6.80081 6.63315 10.5281 6.63315H26.3211L23.4529 9.52377Z" fill="var(--fill-0, #343434)"/>
<path id="Vector_3" d="M20.4592 18.1956L23.1589 17.0433L33.6184 6.51595L31.5003 4.39193L21.0506 14.9193L19.8776 17.5902C19.7274 17.9662 20.12 18.3324 20.4592 18.1956ZM34.5974 5.52962L35.4456 4.66048C36.0078 4.09408 36.0369 3.30794 35.4941 2.77572L35.1258 2.41439C34.6556 1.94564 33.851 2.02376 33.3179 2.56087L32.4793 3.39584L34.5974 5.52962Z" fill="var(--fill-0, #343434)"/>
<g id="cursorarrow.rays 1">
</g>
</g>
</svg>
