<svg preserveAspectRatio="none" width="100%" height="100%" overflow="visible" style="display: block;" viewBox="0 0 33 27" fill="none" xmlns="http://www.w3.org/2000/svg">
<g id="Group">
<path id="Vector" opacity="0" d="M32.4609 0H0V26.9727H32.4609V0Z" fill="var(--fill-0, black)"/>
<path id="Vector_2" d="M17.1191 26.7773C22.9541 26.7773 26.8604 24.6924 26.8604 21.5869C26.8604 18.9307 24.7754 18.4424 24.7754 16.8896C24.7754 14.7412 32.0996 14.541 32.0996 9.03809C32.0996 3.59863 26.4697 0 18.0664 0C7.25586 0 0 5.55664 0 13.584C0 21.4844 6.88965 26.7773 17.1191 26.7773ZM17.1191 23.667C8.68652 23.667 3.10547 19.6289 3.10547 13.584C3.10547 7.29492 9.05273 3.10547 18.0664 3.10547C24.6484 3.10547 28.9941 5.49316 28.9941 9.03809C28.9941 13.2031 21.6455 12.8711 21.6455 16.6699C21.6455 18.8818 23.7061 19.3701 23.7061 21.0156C23.7061 22.6221 21.1035 23.667 17.1191 23.667ZM15.9863 20.8545C18.0811 20.8545 19.6631 19.2725 19.6631 17.1875C19.6631 15.1758 18.0176 13.5254 15.9863 13.5254C13.9746 13.5254 12.3291 15.1758 12.3291 17.1875C12.3291 19.2041 13.9746 20.8545 15.9863 20.8545ZM15.9863 19.0527C14.9561 19.0527 14.1211 18.2227 14.1211 17.1826C14.1211 16.0303 15 15.3418 15.957 15.332C16.9434 15.3174 17.8564 16.001 17.8564 17.1826C17.8564 18.2227 17.0361 19.0527 15.9863 19.0527Z" fill="var(--fill-0, #343434)"/>
<path id="Vector_3" d="M7.41211 15.2051C8.53027 15.2051 9.43848 14.2676 9.43848 13.1494C9.43848 12.0215 8.53516 11.1182 7.41211 11.1182C6.28418 11.1182 5.36621 12.0264 5.36621 13.1494C5.36621 14.2676 6.28906 15.2051 7.41211 15.2051Z" fill="var(--fill-0, #343434)"/>
<path id="Vector_4" d="M11.8604 11.2939C13.2617 11.2939 14.4141 10.1709 14.4141 8.73047C14.4141 7.31934 13.2568 6.20117 11.8604 6.20117C10.4297 6.20117 9.27734 7.31934 9.27734 8.73047C9.27734 10.1709 10.4297 11.2939 11.8604 11.2939Z" fill="var(--fill-0, #343434)"/>
<path id="Vector_5" d="M18.042 9.32617C19.1895 9.32617 20.1025 8.4082 20.1025 7.26562C20.1025 6.12305 19.1895 5.20508 18.042 5.20508C16.9141 5.20508 15.9668 6.12305 15.9668 7.26562C15.9668 8.4082 16.9141 9.32617 18.042 9.32617Z" fill="var(--fill-0, #343434)"/>
<path id="Vector_6" d="M23.6133 10.1025C24.5312 10.1025 25.2734 9.37012 25.2734 8.43262C25.2734 7.50977 24.5264 6.7627 23.6133 6.7627C22.6758 6.7627 21.9238 7.50977 21.9238 8.43262C21.9238 9.37012 22.6758 10.1025 23.6133 10.1025Z" fill="var(--fill-0, #343434)"/>
</g>
</svg>
