<svg preserveAspectRatio="none" width="100%" height="100%" overflow="visible" style="display: block;" viewBox="0 0 141 88" fill="none" xmlns="http://www.w3.org/2000/svg">
<g id="outline a and f " filter="url(#filter0_d_2049_13685)">
<path d="M27 44C27 34.6112 34.6112 27 44 27H97C106.389 27 114 34.6112 114 44V44C114 53.3888 106.389 61 97 61H70.5H44C34.6112 61 27 53.3888 27 44V44Z" fill="var(--fill-0, white)" fill-opacity="0.25" shape-rendering="crispEdges"/>
<path d="M44 28H97C105.837 28 113 35.1634 113 44C113 52.8366 105.837 60 97 60H44C35.1634 60 28 52.8366 28 44C28 35.1634 35.1634 28 44 28Z" stroke="var(--stroke-0, #828282)" stroke-opacity="0.15" stroke-width="2" shape-rendering="crispEdges"/>
</g>
<defs>
<filter id="filter0_d_2049_13685" x="0.915335" y="0.915335" width="139.169" height="86.1693" filterUnits="userSpaceOnUse" color-interpolation-filters="sRGB">
<feFlood flood-opacity="0" result="BackgroundImageFix"/>
<feColorMatrix in="SourceAlpha" type="matrix" values="0 0 0 0 0 0 0 0 0 0 0 0 0 0 0 0 0 0 127 0" result="hardAlpha"/>
<feMorphology radius="0.988056" operator="dilate" in="SourceAlpha" result="effect1_dropShadow_2049_13685"/>
<feOffset/>
<feGaussianBlur stdDeviation="12.5483"/>
<feComposite in2="hardAlpha" operator="out"/>
<feColorMatrix type="matrix" values="0 0 0 0 0 0 0 0 0 0 0 0 0 0 0 0 0 0 0.05 0"/>
<feBlend mode="normal" in2="BackgroundImageFix" result="effect1_dropShadow_2049_13685"/>
<feBlend mode="normal" in="SourceGraphic" in2="effect1_dropShadow_2049_13685" result="shape"/>
</filter>
</defs>
</svg>
